G04 Layer_Color=16711935*
%FSLAX25Y25*%
%MOIN*%
G70*
G01*
G75*
%ADD50C,0.00400*%
%ADD51C,0.00200*%
D50*
X288554Y67398D02*
Y70398D01*
X292154Y67398D02*
Y70398D01*
X293654Y67398D02*
Y70398D01*
X287054D02*
X293654D01*
X287054Y67398D02*
Y70398D01*
Y67398D02*
X293654D01*
X293776Y92688D02*
X296776D01*
X293776Y96288D02*
X296776D01*
X293776Y97788D02*
X296776D01*
X293776Y91188D02*
Y97788D01*
Y91188D02*
X296776D01*
Y97788D01*
X293776Y77925D02*
X296776D01*
X293776Y81524D02*
X296776D01*
X293776Y83025D02*
X296776D01*
X293776Y76424D02*
Y83025D01*
Y76424D02*
X296776D01*
Y83025D01*
X286586Y104799D02*
Y107799D01*
X290186Y104799D02*
Y107799D01*
X291686Y104799D02*
Y107799D01*
X285086D02*
X291686D01*
X285086Y104799D02*
Y107799D01*
Y104799D02*
X291686D01*
X230784Y145501D02*
X233784D01*
X230784Y141901D02*
X233784D01*
X230784Y140401D02*
X233784D01*
Y147001D01*
X230784D02*
X233784D01*
X230784Y140401D02*
Y147001D01*
X219657Y138264D02*
Y141264D01*
X223257Y138264D02*
Y141264D01*
X224757Y138264D02*
Y141264D01*
X218157D02*
X224757D01*
X218157Y138264D02*
Y141264D01*
Y138264D02*
X224757D01*
X219657Y144169D02*
Y147169D01*
X223257Y144169D02*
Y147169D01*
X224757Y144169D02*
Y147169D01*
X218157D02*
X224757D01*
X218157Y144169D02*
Y147169D01*
Y144169D02*
X224757D01*
X214051Y172076D02*
X217051D01*
X214051Y168476D02*
X217051D01*
X214051Y166976D02*
X217051D01*
Y173576D01*
X214051D02*
X217051D01*
X214051Y166976D02*
Y173576D01*
X172713Y174044D02*
X175713D01*
X172713Y170444D02*
X175713D01*
X172713Y168944D02*
X175713D01*
Y175544D01*
X172713D02*
X175713D01*
X172713Y168944D02*
Y175544D01*
X170444Y137279D02*
Y140279D01*
X174044Y137279D02*
Y140279D01*
X175544Y137279D02*
Y140279D01*
X168944D02*
X175544D01*
X168944Y137279D02*
Y140279D01*
Y137279D02*
X175544D01*
X170444Y143185D02*
Y146185D01*
X174044Y143185D02*
Y146185D01*
X175544Y143185D02*
Y146185D01*
X168944D02*
X175544D01*
X168944Y143185D02*
Y146185D01*
Y143185D02*
X175544D01*
X157949Y147469D02*
X160949D01*
X157949Y143869D02*
X160949D01*
X157949Y142369D02*
X160949D01*
Y148969D01*
X157949D02*
X160949D01*
X157949Y142369D02*
Y148969D01*
X107115Y104799D02*
Y107799D01*
X103515Y104799D02*
Y107799D01*
X102015Y104799D02*
Y107799D01*
Y104799D02*
X108615D01*
Y107799D01*
X102015D02*
X108615D01*
X98894Y96288D02*
X101894D01*
X98894Y92688D02*
X101894D01*
X98894Y91188D02*
X101894D01*
Y97788D01*
X98894D02*
X101894D01*
X98894Y91188D02*
Y97788D01*
X108099Y66413D02*
Y69413D01*
X104499Y66413D02*
Y69413D01*
X102999Y66413D02*
Y69413D01*
Y66413D02*
X109599D01*
Y69413D01*
X102999D02*
X109599D01*
X98894Y81524D02*
X101894D01*
X98894Y77924D02*
X101894D01*
X98894Y76424D02*
X101894D01*
Y83024D01*
X98894D02*
X101894D01*
X98894Y76424D02*
Y83024D01*
X218336Y32949D02*
Y35949D01*
X214736Y32949D02*
Y35949D01*
X213235Y32949D02*
Y35949D01*
Y32949D02*
X219835D01*
Y35949D01*
X213235D02*
X219835D01*
X179303Y32949D02*
Y35949D01*
X182903Y32949D02*
Y35949D01*
X184403Y32949D02*
Y35949D01*
X177803D02*
X184403D01*
X177803Y32949D02*
Y35949D01*
Y32949D02*
X184403D01*
D51*
X290354Y68398D02*
Y69398D01*
X289854Y68898D02*
X290854D01*
X294776Y94488D02*
X295776D01*
X295276Y93988D02*
Y94988D01*
X294776Y79725D02*
X295776D01*
X295276Y79224D02*
Y80225D01*
X288386Y105799D02*
Y106799D01*
X287886Y106299D02*
X288886D01*
X231784Y143701D02*
X232784D01*
X232283Y143201D02*
Y144201D01*
X221457Y139264D02*
Y140264D01*
X220957Y139764D02*
X221957D01*
X221457Y145169D02*
Y146169D01*
X220957Y145669D02*
X221957D01*
X215051Y170276D02*
X216051D01*
X215551Y169776D02*
Y170776D01*
X173713Y172244D02*
X174713D01*
X174213Y171744D02*
Y172744D01*
X172244Y138279D02*
Y139279D01*
X171744Y138779D02*
X172744D01*
X172244Y144185D02*
Y145185D01*
X171744Y144685D02*
X172744D01*
X158949Y145669D02*
X159949D01*
X159449Y145169D02*
Y146169D01*
X105315Y105799D02*
Y106799D01*
X104815Y106299D02*
X105815D01*
X99894Y94488D02*
X100894D01*
X100394Y93988D02*
Y94988D01*
X106299Y67413D02*
Y68413D01*
X105799Y67913D02*
X106799D01*
X99894Y79724D02*
X100894D01*
X100394Y79224D02*
Y80224D01*
X216535Y33949D02*
Y34949D01*
X216036Y34449D02*
X217036D01*
X181103Y33949D02*
Y34949D01*
X180603Y34449D02*
X181603D01*
M02*
