G04 Layer_Color=8388736*
%FSLAX25Y25*%
%MOIN*%
G70*
G01*
G75*
%ADD35R,0.05300X0.04000*%
%ADD36R,0.04000X0.05300*%
%ADD37O,0.07296X0.02572*%
%ADD38R,0.09461X0.13595*%
%ADD39R,0.09461X0.04737*%
G04:AMPARAMS|DCode=40|XSize=122.96mil|YSize=45.4mil|CornerRadius=4.94mil|HoleSize=0mil|Usage=FLASHONLY|Rotation=0.000|XOffset=0mil|YOffset=0mil|HoleType=Round|Shape=RoundedRectangle|*
%AMROUNDEDRECTD40*
21,1,0.12296,0.03553,0,0,0.0*
21,1,0.11309,0.04540,0,0,0.0*
1,1,0.00987,0.05655,-0.01777*
1,1,0.00987,-0.05655,-0.01777*
1,1,0.00987,-0.05655,0.01777*
1,1,0.00987,0.05655,0.01777*
%
%ADD40ROUNDEDRECTD40*%
G04:AMPARAMS|DCode=41|XSize=122.96mil|YSize=45.4mil|CornerRadius=13.35mil|HoleSize=0mil|Usage=FLASHONLY|Rotation=0.000|XOffset=0mil|YOffset=0mil|HoleType=Round|Shape=RoundedRectangle|*
%AMROUNDEDRECTD41*
21,1,0.12296,0.01870,0,0,0.0*
21,1,0.09626,0.04540,0,0,0.0*
1,1,0.02670,0.04813,-0.00935*
1,1,0.02670,-0.04813,-0.00935*
1,1,0.02670,-0.04813,0.00935*
1,1,0.02670,0.04813,0.00935*
%
%ADD41ROUNDEDRECTD41*%
G04:AMPARAMS|DCode=42|XSize=90.68mil|YSize=90.68mil|CornerRadius=8.13mil|HoleSize=0mil|Usage=FLASHONLY|Rotation=180.000|XOffset=0mil|YOffset=0mil|HoleType=Round|Shape=RoundedRectangle|*
%AMROUNDEDRECTD42*
21,1,0.09068,0.07441,0,0,180.0*
21,1,0.07441,0.09068,0,0,180.0*
1,1,0.01627,-0.03721,0.03721*
1,1,0.01627,0.03721,0.03721*
1,1,0.01627,0.03721,-0.03721*
1,1,0.01627,-0.03721,-0.03721*
%
%ADD42ROUNDEDRECTD42*%
%ADD43R,0.06800X0.06800*%
%ADD44C,0.06800*%
%ADD45R,0.06800X0.06800*%
%ADD46C,0.09461*%
%ADD47C,0.07099*%
%ADD48C,0.04343*%
D35*
X293854Y68898D02*
D03*
X286854D02*
D03*
X291886Y106299D02*
D03*
X284886D02*
D03*
X224957Y139764D02*
D03*
X217957D02*
D03*
X224957Y145669D02*
D03*
X217957D02*
D03*
X175744Y138779D02*
D03*
X168744D02*
D03*
X175744Y144685D02*
D03*
X168744D02*
D03*
X101815Y106299D02*
D03*
X108815D02*
D03*
X102799Y67913D02*
D03*
X109799D02*
D03*
X213035Y34449D02*
D03*
X220036D02*
D03*
X184602D02*
D03*
X177603D02*
D03*
D36*
X295276Y97988D02*
D03*
Y90988D02*
D03*
Y83224D02*
D03*
Y76224D02*
D03*
X232283Y140201D02*
D03*
Y147201D02*
D03*
X215551Y166776D02*
D03*
Y173776D02*
D03*
X174213Y168744D02*
D03*
Y175744D02*
D03*
X159449Y142169D02*
D03*
Y149169D02*
D03*
X100394Y90988D02*
D03*
Y97988D02*
D03*
Y76224D02*
D03*
Y83224D02*
D03*
D37*
X207972Y141220D02*
D03*
Y143740D02*
D03*
Y146260D02*
D03*
Y148780D02*
D03*
Y151299D02*
D03*
Y153819D02*
D03*
Y156339D02*
D03*
Y158858D02*
D03*
Y161378D02*
D03*
Y163898D02*
D03*
X185728Y141220D02*
D03*
Y143740D02*
D03*
Y146260D02*
D03*
Y148780D02*
D03*
Y151299D02*
D03*
Y153819D02*
D03*
Y156339D02*
D03*
Y158858D02*
D03*
Y161378D02*
D03*
Y163898D02*
D03*
D38*
X135236Y86614D02*
D03*
X260433Y87599D02*
D03*
D39*
X110827Y77559D02*
D03*
Y86614D02*
D03*
Y95669D02*
D03*
X284843Y96654D02*
D03*
Y87599D02*
D03*
Y78543D02*
D03*
D40*
X35512Y38228D02*
D03*
X11732D02*
D03*
X35512Y43228D02*
D03*
X11732D02*
D03*
X35512Y48228D02*
D03*
X11732D02*
D03*
X35512Y53228D02*
D03*
X11732D02*
D03*
X35512Y58228D02*
D03*
X358189D02*
D03*
X381969D02*
D03*
X358189Y53228D02*
D03*
X381969D02*
D03*
X358189Y48228D02*
D03*
X381969D02*
D03*
X358189Y43228D02*
D03*
X381969D02*
D03*
X358189Y38228D02*
D03*
D41*
X11732Y58228D02*
D03*
X381969Y38228D02*
D03*
D42*
X246850Y106693D02*
D03*
X236850D02*
D03*
X226850D02*
D03*
X216850D02*
D03*
X206850D02*
D03*
X186850D02*
D03*
X176850D02*
D03*
X166850D02*
D03*
X156850D02*
D03*
X146850D02*
D03*
X246850Y76693D02*
D03*
X236850D02*
D03*
X226850D02*
D03*
X216850D02*
D03*
X206850D02*
D03*
X186850D02*
D03*
X176850D02*
D03*
X166850D02*
D03*
X156850D02*
D03*
X146850D02*
D03*
Y66693D02*
D03*
X156850D02*
D03*
X166850D02*
D03*
X176850D02*
D03*
X186850D02*
D03*
X206850D02*
D03*
X216850D02*
D03*
X226850D02*
D03*
X236850D02*
D03*
X246850D02*
D03*
X146850Y56693D02*
D03*
X156850D02*
D03*
X166850D02*
D03*
X176850D02*
D03*
X186850D02*
D03*
X206850D02*
D03*
X216850D02*
D03*
X226850D02*
D03*
X236850D02*
D03*
X246850D02*
D03*
X146850Y96693D02*
D03*
X156850D02*
D03*
X166850D02*
D03*
X176850D02*
D03*
X186850D02*
D03*
X206850D02*
D03*
X216850D02*
D03*
X226850D02*
D03*
X236850D02*
D03*
X246850D02*
D03*
X146850Y86693D02*
D03*
X156850D02*
D03*
X166850D02*
D03*
X176850D02*
D03*
X186850D02*
D03*
X206850D02*
D03*
X216850D02*
D03*
X226850D02*
D03*
X236850D02*
D03*
X246850D02*
D03*
D43*
X367835Y178228D02*
D03*
X306102Y99567D02*
D03*
X115866Y178228D02*
D03*
D44*
X367835Y168228D02*
D03*
X357835Y178228D02*
D03*
Y168228D02*
D03*
X347835Y178228D02*
D03*
Y168228D02*
D03*
X337835Y178228D02*
D03*
Y168228D02*
D03*
X327835Y178228D02*
D03*
Y168228D02*
D03*
X317835Y178228D02*
D03*
Y168228D02*
D03*
X307835Y178228D02*
D03*
Y168228D02*
D03*
X297835Y178228D02*
D03*
Y168228D02*
D03*
X287835Y178228D02*
D03*
Y168228D02*
D03*
X277835Y178228D02*
D03*
Y168228D02*
D03*
X365157Y92047D02*
D03*
X375157Y102047D02*
D03*
X365157D02*
D03*
X375157Y112047D02*
D03*
X365157D02*
D03*
X375157Y122047D02*
D03*
X365157D02*
D03*
X375157Y132047D02*
D03*
X365157D02*
D03*
X306102Y89567D02*
D03*
X158465Y126969D02*
D03*
X34291Y15748D02*
D03*
X24291D02*
D03*
X44291D02*
D03*
X54291D02*
D03*
X64291D02*
D03*
X28543Y132047D02*
D03*
X18543Y122047D02*
D03*
X28543D02*
D03*
X18543Y112047D02*
D03*
X28543D02*
D03*
X18543Y102047D02*
D03*
X28543D02*
D03*
X18543Y92047D02*
D03*
X28543D02*
D03*
X115866Y168228D02*
D03*
X105866Y178228D02*
D03*
Y168228D02*
D03*
X95866Y178228D02*
D03*
Y168228D02*
D03*
X85866Y178228D02*
D03*
Y168228D02*
D03*
X75866Y178228D02*
D03*
Y168228D02*
D03*
X65866Y178228D02*
D03*
Y168228D02*
D03*
X55866Y178228D02*
D03*
Y168228D02*
D03*
X45866Y178228D02*
D03*
Y168228D02*
D03*
X35866Y178228D02*
D03*
Y168228D02*
D03*
X25866Y178228D02*
D03*
Y168228D02*
D03*
X201339Y124213D02*
D03*
X359409Y15748D02*
D03*
X369409D02*
D03*
X349409D02*
D03*
X339409D02*
D03*
X329409D02*
D03*
D45*
X375157Y92047D02*
D03*
X168465Y126969D02*
D03*
X14291Y15748D02*
D03*
X18543Y132047D02*
D03*
X191339Y124213D02*
D03*
X379409Y15748D02*
D03*
D46*
X288386Y46260D02*
D03*
Y6890D02*
D03*
X270669Y46260D02*
D03*
Y6890D02*
D03*
X123031Y46260D02*
D03*
Y6890D02*
D03*
X105315Y46260D02*
D03*
Y6890D02*
D03*
X87598Y46260D02*
D03*
Y6890D02*
D03*
X306102Y46260D02*
D03*
Y6890D02*
D03*
D47*
X177008Y24606D02*
D03*
X187008D02*
D03*
X207008D02*
D03*
X217008D02*
D03*
X227008D02*
D03*
D48*
X315059Y55020D02*
D03*
X288287Y55118D02*
D03*
X123130D02*
D03*
X105315D02*
D03*
X324803Y70866D02*
D03*
X329724D02*
D03*
X334646D02*
D03*
X339567Y70965D02*
D03*
X344488Y70866D02*
D03*
X73819D02*
D03*
X68898D02*
D03*
X63976D02*
D03*
X59055D02*
D03*
X54134D02*
D03*
M02*
