G04 Layer_Color=65535*
%FSLAX25Y25*%
%MOIN*%
G70*
G01*
G75*
%ADD17C,0.02362*%
%ADD28C,0.00984*%
%ADD29C,0.01969*%
%ADD30C,0.00100*%
%ADD31C,0.01000*%
%ADD32C,0.00800*%
%ADD33C,0.00500*%
%ADD34C,0.00787*%
G36*
X78945Y90650D02*
X49016D01*
Y104062D01*
X78945D01*
Y90650D01*
D02*
G37*
G36*
X326189Y133465D02*
X296260D01*
Y146878D01*
X326189D01*
Y133465D01*
D02*
G37*
%LPC*%
G36*
X58947Y100034D02*
X57936D01*
Y97884D01*
X56114D01*
Y100034D01*
X55103D01*
Y94678D01*
X56114D01*
Y97010D01*
X57936D01*
Y94678D01*
X58947D01*
Y100034D01*
D02*
G37*
G36*
X66545Y100126D02*
X66445D01*
X66244Y100116D01*
X66071Y100107D01*
X65907Y100089D01*
X65771Y100062D01*
X65661Y100034D01*
X65579Y100016D01*
X65525Y100007D01*
X65515Y99998D01*
X65506D01*
X65370Y99943D01*
X65251Y99889D01*
X65142Y99834D01*
X65051Y99779D01*
X64978Y99734D01*
X64923Y99697D01*
X64887Y99670D01*
X64878Y99661D01*
X64796Y99579D01*
X64714Y99497D01*
X64659Y99415D01*
X64604Y99333D01*
X64568Y99269D01*
X64532Y99215D01*
X64522Y99178D01*
X64513Y99169D01*
X64477Y99060D01*
X64450Y98959D01*
X64431Y98859D01*
X64422Y98759D01*
X64413Y98686D01*
X64404Y98622D01*
Y98586D01*
Y98568D01*
X64413Y98440D01*
X64422Y98331D01*
X64441Y98231D01*
X64459Y98140D01*
X64477Y98076D01*
X64495Y98021D01*
X64513Y97985D01*
Y97975D01*
X64604Y97812D01*
X64650Y97739D01*
X64705Y97675D01*
X64741Y97629D01*
X64777Y97593D01*
X64796Y97566D01*
X64805Y97557D01*
X64951Y97438D01*
X65087Y97347D01*
X65151Y97311D01*
X65197Y97283D01*
X65224Y97274D01*
X65233Y97265D01*
X65406Y97183D01*
X65488Y97146D01*
X65561Y97110D01*
X65616Y97083D01*
X65670Y97065D01*
X65698Y97055D01*
X65707Y97046D01*
X65889Y96983D01*
X65971Y96955D01*
X66044Y96928D01*
X66098Y96901D01*
X66153Y96891D01*
X66180Y96873D01*
X66190D01*
X66354Y96810D01*
X66426Y96782D01*
X66490Y96755D01*
X66536Y96728D01*
X66581Y96709D01*
X66600Y96700D01*
X66609Y96691D01*
X66736Y96609D01*
X66827Y96536D01*
X66864Y96500D01*
X66891Y96482D01*
X66900Y96463D01*
X66909Y96454D01*
X66946Y96399D01*
X66982Y96354D01*
X67010Y96245D01*
X67019Y96199D01*
X67028Y96163D01*
Y96135D01*
Y96126D01*
X67019Y96026D01*
X67000Y95944D01*
X66973Y95880D01*
X66964Y95871D01*
Y95862D01*
X66909Y95780D01*
X66855Y95716D01*
X66800Y95671D01*
X66791Y95653D01*
X66782D01*
X66681Y95598D01*
X66572Y95561D01*
X66527Y95543D01*
X66490Y95534D01*
X66463Y95525D01*
X66454D01*
X66290Y95498D01*
X66208Y95489D01*
X66135D01*
X66062Y95479D01*
X65816D01*
X65689Y95489D01*
X65634D01*
X65597Y95498D01*
X65561D01*
X65415Y95525D01*
X65342Y95534D01*
X65279Y95543D01*
X65224Y95552D01*
X65188Y95561D01*
X65160Y95570D01*
X65151D01*
X64996Y95607D01*
X64923Y95625D01*
X64859Y95634D01*
X64814Y95653D01*
X64768Y95662D01*
X64741Y95671D01*
X64732D01*
X64586Y95716D01*
X64522Y95735D01*
X64468Y95753D01*
X64422Y95771D01*
X64386Y95789D01*
X64359Y95798D01*
X64349D01*
Y94805D01*
X64632Y94732D01*
X64759Y94705D01*
X64878Y94678D01*
X64978Y94660D01*
X65060Y94650D01*
X65105Y94641D01*
X65124D01*
X65424Y94614D01*
X65561Y94596D01*
X65689D01*
X65789Y94587D01*
X65944D01*
X66117Y94596D01*
X66281Y94605D01*
X66426Y94623D01*
X66563Y94641D01*
X66663Y94660D01*
X66745Y94669D01*
X66800Y94687D01*
X66818D01*
X66964Y94732D01*
X67101Y94778D01*
X67219Y94833D01*
X67319Y94878D01*
X67410Y94924D01*
X67465Y94960D01*
X67510Y94987D01*
X67520Y94997D01*
X67620Y95079D01*
X67711Y95170D01*
X67793Y95252D01*
X67857Y95343D01*
X67911Y95416D01*
X67948Y95470D01*
X67966Y95507D01*
X67975Y95525D01*
X68030Y95653D01*
X68066Y95780D01*
X68103Y95908D01*
X68121Y96035D01*
X68130Y96135D01*
X68139Y96217D01*
Y96272D01*
Y96281D01*
Y96290D01*
X68130Y96409D01*
X68121Y96518D01*
X68103Y96609D01*
X68085Y96700D01*
X68057Y96764D01*
X68039Y96810D01*
X68030Y96846D01*
X68021Y96855D01*
X67975Y96946D01*
X67930Y97028D01*
X67875Y97092D01*
X67829Y97156D01*
X67784Y97210D01*
X67756Y97247D01*
X67729Y97265D01*
X67720Y97274D01*
X67574Y97402D01*
X67447Y97493D01*
X67383Y97529D01*
X67338Y97557D01*
X67310Y97566D01*
X67301Y97575D01*
X67128Y97666D01*
X67046Y97702D01*
X66964Y97730D01*
X66900Y97757D01*
X66855Y97775D01*
X66818Y97793D01*
X66809D01*
X66627Y97866D01*
X66545Y97894D01*
X66472Y97921D01*
X66417Y97948D01*
X66372Y97957D01*
X66335Y97975D01*
X66326D01*
X66162Y98039D01*
X66089Y98067D01*
X66026Y98094D01*
X65971Y98112D01*
X65934Y98130D01*
X65907Y98149D01*
X65898D01*
X65780Y98221D01*
X65689Y98294D01*
X65652Y98322D01*
X65625Y98349D01*
X65616Y98358D01*
X65607Y98367D01*
X65570Y98413D01*
X65543Y98467D01*
X65515Y98559D01*
X65506Y98604D01*
X65497Y98632D01*
Y98650D01*
Y98659D01*
X65506Y98759D01*
X65525Y98832D01*
X65534Y98887D01*
X65543Y98896D01*
Y98905D01*
X65597Y98978D01*
X65652Y99041D01*
X65698Y99078D01*
X65707Y99087D01*
X65716D01*
X65816Y99142D01*
X65907Y99178D01*
X65953Y99196D01*
X65989Y99205D01*
X66007Y99215D01*
X66017D01*
X66171Y99242D01*
X66317Y99251D01*
X66381Y99260D01*
X66590D01*
X66691Y99251D01*
X66727D01*
X66764Y99242D01*
X66791D01*
X66918Y99224D01*
X67028Y99205D01*
X67064Y99196D01*
X67101D01*
X67119Y99187D01*
X67128D01*
X67256Y99169D01*
X67356Y99142D01*
X67401Y99133D01*
X67428Y99123D01*
X67447Y99114D01*
X67456D01*
X67565Y99087D01*
X67656Y99060D01*
X67693Y99050D01*
X67720Y99041D01*
X67738Y99032D01*
X67747D01*
Y99952D01*
X67647Y99971D01*
X67547Y99989D01*
X67510Y99998D01*
X67474Y100007D01*
X67447D01*
X67328Y100034D01*
X67228Y100053D01*
X67183D01*
X67146Y100062D01*
X67119D01*
X67000Y100080D01*
X66882Y100098D01*
X66836D01*
X66800Y100107D01*
X66773D01*
X66645Y100116D01*
X66545Y100126D01*
D02*
G37*
G36*
X72858Y100034D02*
X68895D01*
Y99196D01*
X70362D01*
Y94678D01*
X71391D01*
Y99196D01*
X72858D01*
Y100034D01*
D02*
G37*
G36*
X61771Y100126D02*
X61671D01*
X61507Y100116D01*
X61343Y100098D01*
X61197Y100071D01*
X61070Y100043D01*
X60970Y100016D01*
X60888Y99989D01*
X60833Y99971D01*
X60824Y99962D01*
X60815D01*
X60669Y99889D01*
X60532Y99816D01*
X60414Y99725D01*
X60314Y99643D01*
X60232Y99570D01*
X60168Y99506D01*
X60131Y99470D01*
X60113Y99451D01*
X60013Y99315D01*
X59922Y99178D01*
X59840Y99032D01*
X59776Y98896D01*
X59721Y98768D01*
X59685Y98677D01*
X59667Y98641D01*
X59658Y98613D01*
X59649Y98595D01*
Y98586D01*
X59594Y98376D01*
X59557Y98167D01*
X59521Y97957D01*
X59503Y97757D01*
X59494Y97584D01*
Y97511D01*
X59485Y97447D01*
Y97402D01*
Y97365D01*
Y97338D01*
Y97329D01*
X59494Y97083D01*
X59512Y96855D01*
X59530Y96645D01*
X59567Y96445D01*
X59603Y96263D01*
X59649Y96099D01*
X59703Y95944D01*
X59749Y95807D01*
X59794Y95689D01*
X59849Y95580D01*
X59895Y95489D01*
X59931Y95416D01*
X59967Y95361D01*
X59995Y95324D01*
X60004Y95297D01*
X60013Y95288D01*
X60122Y95161D01*
X60232Y95060D01*
X60359Y94960D01*
X60487Y94887D01*
X60623Y94814D01*
X60751Y94760D01*
X60888Y94714D01*
X61015Y94678D01*
X61133Y94641D01*
X61243Y94623D01*
X61343Y94605D01*
X61434Y94596D01*
X61507D01*
X61562Y94587D01*
X61607D01*
X61771Y94596D01*
X61935Y94614D01*
X62081Y94632D01*
X62208Y94669D01*
X62309Y94696D01*
X62391Y94714D01*
X62445Y94732D01*
X62464Y94741D01*
X62609Y94814D01*
X62737Y94887D01*
X62855Y94969D01*
X62965Y95051D01*
X63047Y95124D01*
X63101Y95188D01*
X63147Y95224D01*
X63156Y95243D01*
X63265Y95379D01*
X63356Y95525D01*
X63438Y95671D01*
X63502Y95807D01*
X63557Y95935D01*
X63602Y96026D01*
X63612Y96062D01*
X63621Y96090D01*
X63630Y96108D01*
Y96117D01*
X63684Y96327D01*
X63730Y96536D01*
X63757Y96746D01*
X63785Y96946D01*
X63794Y97119D01*
Y97192D01*
X63803Y97256D01*
Y97301D01*
Y97338D01*
Y97365D01*
Y97374D01*
X63794Y97620D01*
X63775Y97848D01*
X63757Y98067D01*
X63721Y98267D01*
X63675Y98449D01*
X63630Y98613D01*
X63584Y98768D01*
X63539Y98905D01*
X63484Y99023D01*
X63438Y99133D01*
X63393Y99224D01*
X63347Y99296D01*
X63311Y99351D01*
X63293Y99388D01*
X63274Y99415D01*
X63265Y99424D01*
X63156Y99552D01*
X63047Y99652D01*
X62919Y99752D01*
X62792Y99834D01*
X62655Y99898D01*
X62527Y99952D01*
X62391Y99998D01*
X62263Y100034D01*
X62145Y100071D01*
X62035Y100089D01*
X61935Y100107D01*
X61844Y100116D01*
X61771Y100126D01*
D02*
G37*
%LPD*%
G36*
X61753Y99205D02*
X61844Y99196D01*
X62017Y99142D01*
X62163Y99069D01*
X62281Y98978D01*
X62372Y98887D01*
X62436Y98814D01*
X62473Y98759D01*
X62482Y98750D01*
Y98741D01*
X62527Y98650D01*
X62564Y98549D01*
X62628Y98322D01*
X62673Y98094D01*
X62710Y97857D01*
X62719Y97757D01*
X62728Y97657D01*
Y97566D01*
X62737Y97484D01*
Y97420D01*
Y97374D01*
Y97338D01*
Y97329D01*
Y97165D01*
X62728Y97019D01*
X62719Y96882D01*
X62710Y96764D01*
X62691Y96673D01*
X62682Y96600D01*
X62673Y96554D01*
Y96536D01*
X62646Y96418D01*
X62618Y96308D01*
X62582Y96208D01*
X62546Y96126D01*
X62518Y96053D01*
X62491Y96008D01*
X62482Y95971D01*
X62473Y95962D01*
X62418Y95880D01*
X62363Y95816D01*
X62309Y95753D01*
X62254Y95707D01*
X62208Y95662D01*
X62172Y95634D01*
X62145Y95625D01*
X62136Y95616D01*
X62054Y95580D01*
X61972Y95552D01*
X61890Y95525D01*
X61817Y95516D01*
X61744Y95507D01*
X61689Y95498D01*
X61644D01*
X61534Y95507D01*
X61443Y95516D01*
X61270Y95570D01*
X61124Y95643D01*
X61006Y95735D01*
X60915Y95816D01*
X60851Y95889D01*
X60815Y95944D01*
X60806Y95953D01*
Y95962D01*
X60760Y96053D01*
X60724Y96153D01*
X60660Y96381D01*
X60614Y96609D01*
X60587Y96846D01*
X60569Y96946D01*
Y97046D01*
X60560Y97137D01*
X60550Y97219D01*
Y97283D01*
Y97329D01*
Y97365D01*
Y97374D01*
Y97538D01*
X60560Y97684D01*
X60569Y97821D01*
X60578Y97930D01*
X60587Y98030D01*
X60596Y98094D01*
X60605Y98140D01*
Y98158D01*
X60632Y98285D01*
X60660Y98395D01*
X60696Y98495D01*
X60724Y98577D01*
X60751Y98641D01*
X60778Y98695D01*
X60787Y98723D01*
X60796Y98732D01*
X60851Y98814D01*
X60906Y98887D01*
X60961Y98950D01*
X61015Y98996D01*
X61061Y99041D01*
X61097Y99069D01*
X61124Y99078D01*
X61133Y99087D01*
X61216Y99133D01*
X61298Y99160D01*
X61389Y99187D01*
X61471Y99196D01*
X61534Y99205D01*
X61598Y99215D01*
X61644D01*
X61753Y99205D01*
D02*
G37*
%LPC*%
G36*
X318271Y142849D02*
X317196D01*
X316294Y139679D01*
X315994Y138558D01*
X315702Y139615D01*
X314800Y142849D01*
X313652D01*
X315292Y137493D01*
X316622D01*
X318271Y142849D01*
D02*
G37*
G36*
X322252D02*
X319027D01*
Y137493D01*
X322252D01*
Y138349D01*
X320057D01*
Y139834D01*
X322152D01*
Y140663D01*
X320057D01*
Y141993D01*
X322252D01*
Y142849D01*
D02*
G37*
G36*
X306255D02*
X305226D01*
Y137493D01*
X308514D01*
Y138358D01*
X306255D01*
Y142849D01*
D02*
G37*
G36*
X312049D02*
X310637D01*
X309052Y137493D01*
X310054D01*
X310354Y138549D01*
X312222D01*
X312523Y137493D01*
X313634D01*
X312049Y142849D01*
D02*
G37*
G36*
X302392Y142940D02*
X302292D01*
X302092Y142931D01*
X301919Y142922D01*
X301755Y142904D01*
X301618Y142877D01*
X301509Y142849D01*
X301427Y142831D01*
X301372Y142822D01*
X301363Y142813D01*
X301354D01*
X301217Y142758D01*
X301099Y142704D01*
X300989Y142649D01*
X300898Y142594D01*
X300825Y142549D01*
X300771Y142512D01*
X300734Y142485D01*
X300725Y142476D01*
X300643Y142394D01*
X300561Y142312D01*
X300507Y142230D01*
X300452Y142148D01*
X300415Y142084D01*
X300379Y142030D01*
X300370Y141993D01*
X300361Y141984D01*
X300324Y141875D01*
X300297Y141774D01*
X300279Y141674D01*
X300270Y141574D01*
X300261Y141501D01*
X300252Y141437D01*
Y141401D01*
Y141383D01*
X300261Y141255D01*
X300270Y141146D01*
X300288Y141046D01*
X300306Y140954D01*
X300324Y140891D01*
X300343Y140836D01*
X300361Y140800D01*
Y140790D01*
X300452Y140627D01*
X300498Y140554D01*
X300552Y140490D01*
X300589Y140444D01*
X300625Y140408D01*
X300643Y140381D01*
X300652Y140371D01*
X300798Y140253D01*
X300935Y140162D01*
X300998Y140126D01*
X301044Y140098D01*
X301071Y140089D01*
X301080Y140080D01*
X301254Y139998D01*
X301336Y139962D01*
X301409Y139925D01*
X301463Y139898D01*
X301518Y139880D01*
X301545Y139870D01*
X301554Y139861D01*
X301736Y139797D01*
X301818Y139770D01*
X301891Y139743D01*
X301946Y139716D01*
X302001Y139706D01*
X302028Y139688D01*
X302037D01*
X302201Y139624D01*
X302274Y139597D01*
X302338Y139570D01*
X302383Y139542D01*
X302429Y139524D01*
X302447Y139515D01*
X302456Y139506D01*
X302584Y139424D01*
X302675Y139351D01*
X302711Y139315D01*
X302738Y139296D01*
X302748Y139278D01*
X302757Y139269D01*
X302793Y139215D01*
X302830Y139169D01*
X302857Y139060D01*
X302866Y139014D01*
X302875Y138978D01*
Y138950D01*
Y138941D01*
X302866Y138841D01*
X302848Y138759D01*
X302820Y138695D01*
X302811Y138686D01*
Y138677D01*
X302757Y138595D01*
X302702Y138531D01*
X302647Y138486D01*
X302638Y138468D01*
X302629D01*
X302529Y138413D01*
X302420Y138376D01*
X302374Y138358D01*
X302338Y138349D01*
X302310Y138340D01*
X302301D01*
X302137Y138313D01*
X302055Y138303D01*
X301982D01*
X301909Y138294D01*
X301664D01*
X301536Y138303D01*
X301481D01*
X301445Y138313D01*
X301409D01*
X301263Y138340D01*
X301190Y138349D01*
X301126Y138358D01*
X301071Y138367D01*
X301035Y138376D01*
X301008Y138385D01*
X300998D01*
X300844Y138422D01*
X300771Y138440D01*
X300707Y138449D01*
X300661Y138468D01*
X300616Y138477D01*
X300589Y138486D01*
X300580D01*
X300434Y138531D01*
X300370Y138549D01*
X300315Y138568D01*
X300270Y138586D01*
X300233Y138604D01*
X300206Y138613D01*
X300197D01*
Y137620D01*
X300479Y137547D01*
X300607Y137520D01*
X300725Y137493D01*
X300825Y137475D01*
X300907Y137465D01*
X300953Y137456D01*
X300971D01*
X301272Y137429D01*
X301409Y137411D01*
X301536D01*
X301636Y137402D01*
X301791D01*
X301964Y137411D01*
X302128Y137420D01*
X302274Y137438D01*
X302411Y137456D01*
X302511Y137475D01*
X302593Y137484D01*
X302647Y137502D01*
X302666D01*
X302811Y137547D01*
X302948Y137593D01*
X303066Y137648D01*
X303167Y137693D01*
X303258Y137739D01*
X303312Y137775D01*
X303358Y137802D01*
X303367Y137812D01*
X303467Y137893D01*
X303558Y137985D01*
X303640Y138067D01*
X303704Y138158D01*
X303759Y138231D01*
X303795Y138285D01*
X303814Y138322D01*
X303823Y138340D01*
X303877Y138468D01*
X303914Y138595D01*
X303950Y138723D01*
X303968Y138850D01*
X303977Y138950D01*
X303987Y139032D01*
Y139087D01*
Y139096D01*
Y139105D01*
X303977Y139224D01*
X303968Y139333D01*
X303950Y139424D01*
X303932Y139515D01*
X303905Y139579D01*
X303886Y139624D01*
X303877Y139661D01*
X303868Y139670D01*
X303823Y139761D01*
X303777Y139843D01*
X303722Y139907D01*
X303677Y139971D01*
X303631Y140025D01*
X303604Y140062D01*
X303577Y140080D01*
X303568Y140089D01*
X303422Y140217D01*
X303294Y140308D01*
X303231Y140344D01*
X303185Y140371D01*
X303158Y140381D01*
X303149Y140390D01*
X302975Y140481D01*
X302893Y140517D01*
X302811Y140544D01*
X302748Y140572D01*
X302702Y140590D01*
X302666Y140608D01*
X302657D01*
X302474Y140681D01*
X302392Y140708D01*
X302320Y140736D01*
X302265Y140763D01*
X302219Y140772D01*
X302183Y140790D01*
X302174D01*
X302010Y140854D01*
X301937Y140882D01*
X301873Y140909D01*
X301818Y140927D01*
X301782Y140945D01*
X301755Y140964D01*
X301746D01*
X301627Y141036D01*
X301536Y141109D01*
X301500Y141137D01*
X301472Y141164D01*
X301463Y141173D01*
X301454Y141182D01*
X301418Y141228D01*
X301390Y141282D01*
X301363Y141374D01*
X301354Y141419D01*
X301345Y141446D01*
Y141465D01*
Y141474D01*
X301354Y141574D01*
X301372Y141647D01*
X301381Y141701D01*
X301390Y141711D01*
Y141720D01*
X301445Y141793D01*
X301500Y141856D01*
X301545Y141893D01*
X301554Y141902D01*
X301563D01*
X301664Y141957D01*
X301755Y141993D01*
X301800Y142011D01*
X301837Y142020D01*
X301855Y142030D01*
X301864D01*
X302019Y142057D01*
X302165Y142066D01*
X302228Y142075D01*
X302438D01*
X302538Y142066D01*
X302575D01*
X302611Y142057D01*
X302638D01*
X302766Y142039D01*
X302875Y142020D01*
X302912Y142011D01*
X302948D01*
X302966Y142002D01*
X302975D01*
X303103Y141984D01*
X303203Y141957D01*
X303249Y141947D01*
X303276Y141938D01*
X303294Y141929D01*
X303303D01*
X303413Y141902D01*
X303504Y141875D01*
X303540Y141866D01*
X303568Y141856D01*
X303586Y141847D01*
X303595D01*
Y142767D01*
X303495Y142786D01*
X303395Y142804D01*
X303358Y142813D01*
X303322Y142822D01*
X303294D01*
X303176Y142849D01*
X303076Y142868D01*
X303030D01*
X302994Y142877D01*
X302966D01*
X302848Y142895D01*
X302729Y142913D01*
X302684D01*
X302647Y142922D01*
X302620D01*
X302493Y142931D01*
X302392Y142940D01*
D02*
G37*
%LPD*%
G36*
X311994Y139369D02*
X310591D01*
X311302Y141866D01*
X311994Y139369D01*
D02*
G37*
D17*
X195669Y165945D02*
G03*
X195669Y165945I-1181J0D01*
G01*
D28*
X186221Y166949D02*
G03*
X186221Y166949I-492J0D01*
G01*
X111319Y99803D02*
G03*
X111319Y99803I-492J0D01*
G01*
X285335Y74410D02*
G03*
X285335Y74410I-492J0D01*
G01*
D29*
X21622Y58228D02*
G03*
X21622Y58228I-1000J0D01*
G01*
X374079Y38228D02*
G03*
X374079Y38228I-1000J0D01*
G01*
D30*
X101639Y128732D02*
X102639D01*
X93039D02*
X94039D01*
X101139Y128832D02*
X102639D01*
X92539D02*
X94039D01*
X100939Y128932D02*
X102639D01*
X92339D02*
X94039D01*
X100739Y129032D02*
X102639D01*
X92139D02*
X94039D01*
X100639Y129132D02*
X102639D01*
X92039D02*
X94039D01*
X100639Y129232D02*
X102639D01*
X92039D02*
X94039D01*
X100539Y129332D02*
X102639D01*
X91939D02*
X94039D01*
X100439Y129432D02*
X102639D01*
X91839D02*
X94039D01*
X100439Y129532D02*
X102639D01*
X91839D02*
X94039D01*
X100439Y129632D02*
X102639D01*
X91839D02*
X94039D01*
X100339Y129732D02*
X102639D01*
X91739D02*
X94039D01*
X100339Y129832D02*
X102639D01*
X91739D02*
X94039D01*
X100339Y129932D02*
X102639D01*
X91739D02*
X94039D01*
X100339Y130032D02*
X102639D01*
X91739D02*
X94039D01*
X100339Y130132D02*
X102639D01*
X91739D02*
X94039D01*
X100339Y130232D02*
X102639D01*
X91739D02*
X94039D01*
X100339Y130332D02*
X102639D01*
X91739D02*
X94039D01*
X100339Y130432D02*
X102639D01*
X91739D02*
X94039D01*
X100339Y130532D02*
X102639D01*
X91739D02*
X94039D01*
X100339Y130632D02*
X102639D01*
X91739D02*
X94039D01*
X100339Y130732D02*
X102639D01*
X91739D02*
X94039D01*
X100339Y130832D02*
X102639D01*
X91739D02*
X94039D01*
X100339Y130932D02*
X102639D01*
X91739D02*
X94039D01*
X100339Y131032D02*
X102639D01*
X91739D02*
X94039D01*
X100339Y131132D02*
X102639D01*
X91739D02*
X94039D01*
X100339Y131232D02*
X102639D01*
X91739D02*
X94039D01*
X100339Y131332D02*
X102639D01*
X91739D02*
X94039D01*
X100339Y131432D02*
X102639D01*
X91739D02*
X94039D01*
X100339Y131532D02*
X102639D01*
X91739D02*
X94039D01*
X100339Y131632D02*
X102639D01*
X91739D02*
X94039D01*
X100339Y131732D02*
X102639D01*
X91739D02*
X94039D01*
X100339Y131832D02*
X102639D01*
X91739D02*
X94039D01*
X111939Y131932D02*
X114139D01*
X103739D02*
X105239D01*
X100339D02*
X102639D01*
X95139D02*
X96639D01*
X91739D02*
X94039D01*
X86239D02*
X87739D01*
X121239Y132032D02*
X122339D01*
X118339D02*
X119339D01*
X111539D02*
X114839D01*
X103339D02*
X105639D01*
X100339D02*
X102639D01*
X94739D02*
X97039D01*
X91739D02*
X94039D01*
X90239D02*
X91239D01*
X85739D02*
X88139D01*
X82539D02*
X83139D01*
X77039D02*
X78039D01*
X120739Y132132D02*
X122339D01*
X117839D02*
X119339D01*
X111239D02*
X115339D01*
X103139D02*
X105939D01*
X100339D02*
X102639D01*
X94539D02*
X97339D01*
X91739D02*
X94039D01*
X89839D02*
X91239D01*
X85439D02*
X88339D01*
X82139D02*
X83539D01*
X76539D02*
X78039D01*
X120539Y132232D02*
X122339D01*
X117639D02*
X119339D01*
X110939D02*
X115739D01*
X102939D02*
X106139D01*
X100339D02*
X102639D01*
X94339D02*
X97539D01*
X91739D02*
X94039D01*
X89539D02*
X91239D01*
X85239D02*
X88539D01*
X81939D02*
X83739D01*
X76339D02*
X78039D01*
X120439Y132332D02*
X122339D01*
X117539D02*
X119339D01*
X110739D02*
X116039D01*
X102739D02*
X106339D01*
X100339D02*
X102639D01*
X94139D02*
X97739D01*
X91739D02*
X94039D01*
X89439D02*
X91239D01*
X85039D02*
X88739D01*
X81739D02*
X83939D01*
X76239D02*
X78039D01*
X120339Y132432D02*
X122339D01*
X117439D02*
X119339D01*
X110539D02*
X116239D01*
X100339D02*
X106539D01*
X91739D02*
X97939D01*
X89339D02*
X91239D01*
X84839D02*
X88839D01*
X81639D02*
X84039D01*
X76139D02*
X78039D01*
X120239Y132532D02*
X122339D01*
X117339D02*
X119339D01*
X110339D02*
X116339D01*
X100339D02*
X106739D01*
X91739D02*
X98139D01*
X89239D02*
X91239D01*
X84739D02*
X88939D01*
X81439D02*
X84039D01*
X76039D02*
X78039D01*
X120239Y132632D02*
X122339D01*
X117239D02*
X119339D01*
X110239D02*
X116339D01*
X100339D02*
X106839D01*
X91739D02*
X98239D01*
X89239D02*
X91239D01*
X84539D02*
X89139D01*
X81339D02*
X84139D01*
X75939D02*
X78039D01*
X120139Y132732D02*
X122339D01*
X117239D02*
X119339D01*
X110139D02*
X116339D01*
X100339D02*
X106939D01*
X91739D02*
X98339D01*
X84439D02*
X91239D01*
X81239D02*
X84039D01*
X75939D02*
X78039D01*
X120139Y132832D02*
X122339D01*
X117139D02*
X119339D01*
X109939D02*
X116339D01*
X100339D02*
X107139D01*
X91739D02*
X98539D01*
X84339D02*
X91239D01*
X81139D02*
X83939D01*
X75939D02*
X78039D01*
X120039Y132932D02*
X122339D01*
X117139D02*
X119339D01*
X109839D02*
X116339D01*
X100339D02*
X107239D01*
X91739D02*
X98639D01*
X84239D02*
X91239D01*
X81039D02*
X83839D01*
X75839D02*
X78039D01*
X120039Y133032D02*
X122339D01*
X117139D02*
X119339D01*
X109739D02*
X116239D01*
X100339D02*
X107339D01*
X91739D02*
X98739D01*
X84139D02*
X91239D01*
X80939D02*
X83739D01*
X75839D02*
X78039D01*
X120039Y133132D02*
X122339D01*
X117139D02*
X119339D01*
X109639D02*
X116239D01*
X100339D02*
X107439D01*
X91739D02*
X98839D01*
X84039D02*
X91239D01*
X80839D02*
X83639D01*
X75839D02*
X78039D01*
X120039Y133232D02*
X122339D01*
X117139D02*
X119339D01*
X109639D02*
X116239D01*
X100339D02*
X107539D01*
X91739D02*
X98939D01*
X84039D02*
X91239D01*
X80739D02*
X83639D01*
X75839D02*
X78039D01*
X120039Y133332D02*
X122339D01*
X117039D02*
X119339D01*
X109539D02*
X116139D01*
X100339D02*
X107639D01*
X91739D02*
X99039D01*
X83939D02*
X91239D01*
X80639D02*
X83539D01*
X75839D02*
X78039D01*
X120039Y133432D02*
X122339D01*
X117039D02*
X119339D01*
X109439D02*
X116039D01*
X100339D02*
X107639D01*
X91739D02*
X99039D01*
X83839D02*
X91239D01*
X80539D02*
X83439D01*
X75839D02*
X78039D01*
X120039Y133532D02*
X122339D01*
X117039D02*
X119339D01*
X113439D02*
X115839D01*
X109339D02*
X112739D01*
X100339D02*
X107739D01*
X91739D02*
X99139D01*
X83839D02*
X91239D01*
X80539D02*
X83339D01*
X75839D02*
X78039D01*
X120039Y133632D02*
X122339D01*
X117039D02*
X119339D01*
X114739D02*
X115439D01*
X109339D02*
X112239D01*
X104739D02*
X107839D01*
X100339D02*
X103839D01*
X96139D02*
X99239D01*
X91739D02*
X95239D01*
X87639D02*
X91239D01*
X83839D02*
X86639D01*
X80439D02*
X83239D01*
X75839D02*
X78039D01*
X120039Y133732D02*
X122339D01*
X117039D02*
X119339D01*
X109239D02*
X112039D01*
X105039D02*
X107939D01*
X100339D02*
X103539D01*
X96439D02*
X99339D01*
X91739D02*
X94939D01*
X88039D02*
X91239D01*
X83739D02*
X86339D01*
X80339D02*
X83139D01*
X75839D02*
X78039D01*
X120039Y133832D02*
X122339D01*
X117039D02*
X119339D01*
X109139D02*
X111839D01*
X105239D02*
X107939D01*
X100339D02*
X103339D01*
X96639D02*
X99339D01*
X91739D02*
X94739D01*
X88339D02*
X91239D01*
X83739D02*
X86139D01*
X80239D02*
X83039D01*
X75839D02*
X78039D01*
X120039Y133932D02*
X122339D01*
X117039D02*
X119339D01*
X109139D02*
X111739D01*
X105339D02*
X108039D01*
X100339D02*
X103239D01*
X96739D02*
X99439D01*
X91739D02*
X94639D01*
X88439D02*
X91239D01*
X83639D02*
X86039D01*
X80139D02*
X82939D01*
X75839D02*
X78039D01*
X120039Y134032D02*
X122339D01*
X117039D02*
X119339D01*
X109039D02*
X111639D01*
X105439D02*
X108039D01*
X100339D02*
X103139D01*
X96839D02*
X99439D01*
X91739D02*
X94539D01*
X88539D02*
X91239D01*
X83639D02*
X85939D01*
X80039D02*
X82839D01*
X75839D02*
X78039D01*
X120039Y134132D02*
X122339D01*
X117039D02*
X119339D01*
X109039D02*
X111539D01*
X105539D02*
X108139D01*
X100339D02*
X103039D01*
X96939D02*
X99539D01*
X91739D02*
X94439D01*
X88639D02*
X91239D01*
X83639D02*
X85839D01*
X80039D02*
X82739D01*
X75839D02*
X78039D01*
X120039Y134232D02*
X122339D01*
X117039D02*
X119339D01*
X108939D02*
X111439D01*
X105639D02*
X108139D01*
X100339D02*
X102939D01*
X97039D02*
X99539D01*
X91739D02*
X94339D01*
X88739D02*
X91239D01*
X83639D02*
X85739D01*
X79939D02*
X82639D01*
X75839D02*
X78039D01*
X120039Y134332D02*
X122339D01*
X117039D02*
X119339D01*
X108939D02*
X111339D01*
X105739D02*
X108239D01*
X100339D02*
X102839D01*
X97139D02*
X99639D01*
X91739D02*
X94239D01*
X88839D02*
X91239D01*
X83639D02*
X85739D01*
X79839D02*
X82539D01*
X75839D02*
X78039D01*
X120039Y134432D02*
X122339D01*
X117039D02*
X119339D01*
X108939D02*
X111339D01*
X105839D02*
X108239D01*
X100339D02*
X102839D01*
X97239D02*
X99639D01*
X91739D02*
X94239D01*
X88839D02*
X91239D01*
X83539D02*
X85739D01*
X79739D02*
X82439D01*
X75839D02*
X78039D01*
X120039Y134532D02*
X122339D01*
X117039D02*
X119339D01*
X108839D02*
X111239D01*
X105839D02*
X108339D01*
X100339D02*
X102739D01*
X97239D02*
X99739D01*
X91739D02*
X94139D01*
X88939D02*
X91239D01*
X83539D02*
X85739D01*
X79639D02*
X82439D01*
X75839D02*
X78039D01*
X120039Y134632D02*
X122339D01*
X117039D02*
X119339D01*
X108839D02*
X111239D01*
X105939D02*
X108339D01*
X100339D02*
X102739D01*
X97339D02*
X99739D01*
X91739D02*
X94139D01*
X88939D02*
X91239D01*
X83539D02*
X85739D01*
X79539D02*
X82339D01*
X75839D02*
X78039D01*
X120039Y134732D02*
X122339D01*
X117039D02*
X119339D01*
X108839D02*
X111239D01*
X105939D02*
X108339D01*
X100339D02*
X102639D01*
X97339D02*
X99739D01*
X91739D02*
X94039D01*
X89039D02*
X91239D01*
X83539D02*
X85639D01*
X79539D02*
X82239D01*
X75839D02*
X78039D01*
X120039Y134832D02*
X122339D01*
X117039D02*
X119339D01*
X108739D02*
X111139D01*
X106039D02*
X108439D01*
X100339D02*
X102639D01*
X97439D02*
X99839D01*
X91739D02*
X94039D01*
X89039D02*
X91239D01*
X83539D02*
X85639D01*
X79439D02*
X82139D01*
X75839D02*
X78039D01*
X120039Y134932D02*
X122339D01*
X117039D02*
X119339D01*
X108739D02*
X111139D01*
X106039D02*
X108439D01*
X100339D02*
X102639D01*
X97439D02*
X99839D01*
X91739D02*
X93939D01*
X89039D02*
X91239D01*
X83539D02*
X85739D01*
X79339D02*
X82039D01*
X75839D02*
X78039D01*
X120039Y135032D02*
X122339D01*
X117039D02*
X119339D01*
X108739D02*
X111139D01*
X106139D02*
X108439D01*
X100339D02*
X102539D01*
X97539D02*
X99839D01*
X91739D02*
X93939D01*
X89139D02*
X91239D01*
X83539D02*
X85739D01*
X79239D02*
X81939D01*
X75839D02*
X78039D01*
X120039Y135132D02*
X122339D01*
X117039D02*
X119339D01*
X108739D02*
X111039D01*
X106139D02*
X108539D01*
X100339D02*
X102539D01*
X97539D02*
X99839D01*
X91739D02*
X93939D01*
X89139D02*
X91239D01*
X83539D02*
X85739D01*
X79139D02*
X81839D01*
X75839D02*
X78039D01*
X120039Y135232D02*
X122339D01*
X117039D02*
X119339D01*
X108639D02*
X111039D01*
X106139D02*
X108539D01*
X100339D02*
X102539D01*
X97539D02*
X99939D01*
X91739D02*
X93939D01*
X89139D02*
X91239D01*
X83639D02*
X85739D01*
X79039D02*
X81739D01*
X75839D02*
X78039D01*
X120039Y135332D02*
X122339D01*
X117039D02*
X119339D01*
X112539D02*
X114039D01*
X108639D02*
X111039D01*
X106239D02*
X108539D01*
X100339D02*
X102439D01*
X97639D02*
X99939D01*
X91739D02*
X93839D01*
X89139D02*
X91239D01*
X83639D02*
X85839D01*
X78939D02*
X81639D01*
X75839D02*
X78039D01*
X120039Y135432D02*
X122339D01*
X117039D02*
X119339D01*
X111739D02*
X114639D01*
X108639D02*
X111039D01*
X106239D02*
X108539D01*
X100339D02*
X102439D01*
X97639D02*
X99939D01*
X91739D02*
X93839D01*
X89139D02*
X91239D01*
X83639D02*
X85839D01*
X78939D02*
X81539D01*
X75839D02*
X78039D01*
X120039Y135532D02*
X122339D01*
X117039D02*
X119339D01*
X111239D02*
X115039D01*
X108639D02*
X111039D01*
X106239D02*
X108539D01*
X100339D02*
X102439D01*
X97639D02*
X99939D01*
X91739D02*
X93839D01*
X89139D02*
X91239D01*
X83639D02*
X85939D01*
X78839D02*
X81439D01*
X75839D02*
X78039D01*
X120039Y135632D02*
X122339D01*
X117039D02*
X119339D01*
X108639D02*
X115239D01*
X106239D02*
X108539D01*
X100339D02*
X102439D01*
X97639D02*
X99939D01*
X91739D02*
X93839D01*
X89139D02*
X91239D01*
X83639D02*
X86039D01*
X78739D02*
X81339D01*
X75839D02*
X78039D01*
X120039Y135732D02*
X122339D01*
X117039D02*
X119339D01*
X106339D02*
X115439D01*
X100339D02*
X102439D01*
X97639D02*
X100039D01*
X91739D02*
X93839D01*
X89139D02*
X91239D01*
X83739D02*
X86139D01*
X78639D02*
X81339D01*
X75839D02*
X78039D01*
X120039Y135832D02*
X122339D01*
X117039D02*
X119339D01*
X106339D02*
X115639D01*
X100339D02*
X102439D01*
X97739D02*
X100039D01*
X91739D02*
X93839D01*
X89139D02*
X91239D01*
X83739D02*
X86339D01*
X78539D02*
X81239D01*
X75839D02*
X78039D01*
X120039Y135932D02*
X122339D01*
X117039D02*
X119339D01*
X106339D02*
X115839D01*
X100339D02*
X102439D01*
X97739D02*
X100039D01*
X91739D02*
X93839D01*
X88839D02*
X91239D01*
X83739D02*
X86539D01*
X78439D02*
X81139D01*
X75839D02*
X78039D01*
X120039Y136032D02*
X122339D01*
X117039D02*
X119339D01*
X106339D02*
X115939D01*
X100339D02*
X102439D01*
X97739D02*
X100039D01*
X91739D02*
X93839D01*
X88039D02*
X91239D01*
X83839D02*
X86939D01*
X78339D02*
X81039D01*
X75839D02*
X78039D01*
X120039Y136132D02*
X122339D01*
X117039D02*
X119339D01*
X106339D02*
X116039D01*
X100339D02*
X102439D01*
X97739D02*
X100039D01*
X91739D02*
X93839D01*
X83839D02*
X91239D01*
X78239D02*
X80939D01*
X75839D02*
X78039D01*
X120039Y136232D02*
X122339D01*
X117039D02*
X119339D01*
X106339D02*
X116139D01*
X100339D02*
X102439D01*
X97739D02*
X100039D01*
X91739D02*
X93839D01*
X83939D02*
X91239D01*
X78239D02*
X80839D01*
X75839D02*
X78039D01*
X120039Y136332D02*
X122339D01*
X117039D02*
X119339D01*
X106339D02*
X116239D01*
X100339D02*
X102439D01*
X97739D02*
X100039D01*
X91739D02*
X93839D01*
X84039D02*
X91239D01*
X78139D02*
X80739D01*
X75839D02*
X78039D01*
X120039Y136432D02*
X122339D01*
X117039D02*
X119339D01*
X106339D02*
X116339D01*
X100339D02*
X102439D01*
X97739D02*
X100039D01*
X91739D02*
X93839D01*
X84139D02*
X91239D01*
X75839D02*
X80639D01*
X120039Y136532D02*
X122339D01*
X117039D02*
X119339D01*
X106339D02*
X116339D01*
X100339D02*
X102439D01*
X97739D02*
X100039D01*
X91739D02*
X93839D01*
X84139D02*
X91239D01*
X75839D02*
X80539D01*
X120039Y136632D02*
X122339D01*
X117039D02*
X119339D01*
X106339D02*
X116439D01*
X100339D02*
X102439D01*
X97739D02*
X100039D01*
X91739D02*
X93839D01*
X84339D02*
X91239D01*
X75839D02*
X80439D01*
X120039Y136732D02*
X122339D01*
X117039D02*
X119339D01*
X106339D02*
X116539D01*
X100339D02*
X102439D01*
X97739D02*
X100039D01*
X91739D02*
X93839D01*
X84439D02*
X91239D01*
X75839D02*
X80339D01*
X120039Y136832D02*
X122339D01*
X117039D02*
X119339D01*
X106339D02*
X116539D01*
X100339D02*
X102439D01*
X97739D02*
X100039D01*
X91739D02*
X93839D01*
X84539D02*
X91239D01*
X75839D02*
X80239D01*
X120039Y136932D02*
X122339D01*
X117039D02*
X119339D01*
X113539D02*
X116539D01*
X106339D02*
X111939D01*
X100339D02*
X102539D01*
X97739D02*
X100039D01*
X91739D02*
X93839D01*
X84739D02*
X91239D01*
X75839D02*
X80139D01*
X120039Y137032D02*
X122339D01*
X117039D02*
X119339D01*
X113839D02*
X116639D01*
X106339D02*
X111439D01*
X100339D02*
X102539D01*
X97739D02*
X100039D01*
X91739D02*
X93939D01*
X84939D02*
X91239D01*
X75839D02*
X80139D01*
X120039Y137132D02*
X122339D01*
X117039D02*
X119339D01*
X114039D02*
X116639D01*
X106339D02*
X111039D01*
X100339D02*
X102539D01*
X97739D02*
X100039D01*
X91739D02*
X93939D01*
X85139D02*
X91239D01*
X75839D02*
X80039D01*
X120039Y137232D02*
X122339D01*
X117039D02*
X119339D01*
X114139D02*
X116639D01*
X106339D02*
X111039D01*
X100339D02*
X102539D01*
X97739D02*
X100039D01*
X91739D02*
X93939D01*
X85439D02*
X91239D01*
X75839D02*
X79939D01*
X120039Y137332D02*
X122339D01*
X117039D02*
X119339D01*
X114239D02*
X116739D01*
X106339D02*
X111039D01*
X100339D02*
X102539D01*
X97739D02*
X99939D01*
X91739D02*
X93939D01*
X89139D02*
X91239D01*
X85839D02*
X88839D01*
X75839D02*
X80039D01*
X120039Y137432D02*
X122339D01*
X117039D02*
X119339D01*
X114339D02*
X116739D01*
X108639D02*
X111039D01*
X106339D02*
X108539D01*
X100339D02*
X102539D01*
X97739D02*
X99939D01*
X91739D02*
X93939D01*
X89139D02*
X91239D01*
X86539D02*
X87939D01*
X75839D02*
X80139D01*
X120039Y137532D02*
X122339D01*
X117039D02*
X119339D01*
X114439D02*
X116739D01*
X108639D02*
X111039D01*
X106339D02*
X108539D01*
X100339D02*
X102639D01*
X97739D02*
X99939D01*
X91739D02*
X94039D01*
X89139D02*
X91239D01*
X75839D02*
X80239D01*
X120039Y137632D02*
X122339D01*
X117039D02*
X119339D01*
X114439D02*
X116739D01*
X108739D02*
X111039D01*
X106339D02*
X108539D01*
X100339D02*
X102639D01*
X97639D02*
X99939D01*
X91739D02*
X94039D01*
X89239D02*
X91239D01*
X75839D02*
X80439D01*
X120039Y137732D02*
X122339D01*
X117039D02*
X119339D01*
X114539D02*
X116739D01*
X108739D02*
X111139D01*
X106239D02*
X108539D01*
X100339D02*
X102639D01*
X97639D02*
X99939D01*
X91739D02*
X94039D01*
X89239D02*
X91239D01*
X75839D02*
X80539D01*
X120039Y137832D02*
X122339D01*
X117039D02*
X119339D01*
X114539D02*
X116739D01*
X108739D02*
X111139D01*
X106239D02*
X108539D01*
X100339D02*
X102739D01*
X97639D02*
X99939D01*
X91739D02*
X94139D01*
X89139D02*
X91239D01*
X75839D02*
X80639D01*
X120039Y137932D02*
X122339D01*
X117039D02*
X119339D01*
X114539D02*
X116839D01*
X108739D02*
X111139D01*
X106239D02*
X108439D01*
X100339D02*
X102739D01*
X97639D02*
X99839D01*
X91739D02*
X94139D01*
X89139D02*
X91239D01*
X75839D02*
X80739D01*
X120039Y138032D02*
X122339D01*
X117039D02*
X119339D01*
X114539D02*
X116839D01*
X108839D02*
X111239D01*
X106139D02*
X108439D01*
X100339D02*
X102839D01*
X97539D02*
X99839D01*
X91739D02*
X94239D01*
X89139D02*
X91239D01*
X75839D02*
X80839D01*
X120039Y138132D02*
X122339D01*
X117039D02*
X119339D01*
X114539D02*
X116839D01*
X108839D02*
X111239D01*
X106139D02*
X108439D01*
X100339D02*
X102839D01*
X97539D02*
X99839D01*
X91739D02*
X94239D01*
X89139D02*
X91239D01*
X78139D02*
X80939D01*
X75839D02*
X78039D01*
X120039Y138232D02*
X122339D01*
X117039D02*
X119339D01*
X114539D02*
X116839D01*
X108839D02*
X111239D01*
X106039D02*
X108439D01*
X100339D02*
X102939D01*
X97439D02*
X99739D01*
X91739D02*
X94339D01*
X89139D02*
X91239D01*
X78239D02*
X81039D01*
X75839D02*
X78039D01*
X120039Y138332D02*
X122339D01*
X117039D02*
X119339D01*
X114539D02*
X116739D01*
X108939D02*
X111339D01*
X106039D02*
X108339D01*
X100339D02*
X102939D01*
X97439D02*
X99739D01*
X91739D02*
X94339D01*
X89139D02*
X91239D01*
X78339D02*
X81139D01*
X75839D02*
X78039D01*
X120039Y138432D02*
X122339D01*
X117039D02*
X119339D01*
X114539D02*
X116739D01*
X108939D02*
X111339D01*
X105939D02*
X108339D01*
X100339D02*
X103039D01*
X97339D02*
X99739D01*
X91739D02*
X94439D01*
X89039D02*
X91239D01*
X78439D02*
X81239D01*
X75839D02*
X78039D01*
X120039Y138532D02*
X122339D01*
X117039D02*
X119339D01*
X114539D02*
X116739D01*
X109039D02*
X111439D01*
X105939D02*
X108339D01*
X100339D02*
X103139D01*
X97339D02*
X99639D01*
X91739D02*
X94539D01*
X89039D02*
X91139D01*
X78539D02*
X81439D01*
X75839D02*
X78039D01*
X120039Y138632D02*
X122339D01*
X117039D02*
X119339D01*
X114439D02*
X116739D01*
X109039D02*
X111539D01*
X105839D02*
X108239D01*
X100339D02*
X103239D01*
X97239D02*
X99639D01*
X91739D02*
X94639D01*
X88939D02*
X91139D01*
X78639D02*
X81539D01*
X75839D02*
X78039D01*
X120039Y138732D02*
X122339D01*
X117039D02*
X119339D01*
X114439D02*
X116739D01*
X109039D02*
X111639D01*
X105739D02*
X108239D01*
X100339D02*
X103339D01*
X97139D02*
X99639D01*
X91739D02*
X94739D01*
X88939D02*
X91139D01*
X78839D02*
X81639D01*
X75839D02*
X78039D01*
X120039Y138832D02*
X122339D01*
X117039D02*
X119339D01*
X114339D02*
X116739D01*
X109139D02*
X111739D01*
X105639D02*
X108139D01*
X100339D02*
X103439D01*
X97039D02*
X99539D01*
X91739D02*
X94839D01*
X88839D02*
X91139D01*
X78939D02*
X81739D01*
X75839D02*
X78039D01*
X120039Y138932D02*
X122339D01*
X117039D02*
X119339D01*
X114239D02*
X116639D01*
X109239D02*
X111839D01*
X105539D02*
X108139D01*
X100339D02*
X103539D01*
X96939D02*
X99539D01*
X91739D02*
X94939D01*
X88739D02*
X91039D01*
X79039D02*
X81839D01*
X75839D02*
X78039D01*
X120039Y139032D02*
X122339D01*
X117039D02*
X119339D01*
X114139D02*
X116639D01*
X109239D02*
X111939D01*
X105339D02*
X108039D01*
X100339D02*
X103739D01*
X96739D02*
X99439D01*
X91739D02*
X95139D01*
X88639D02*
X91039D01*
X79139D02*
X81939D01*
X75839D02*
X78039D01*
X120039Y139132D02*
X122239D01*
X117039D02*
X119339D01*
X114039D02*
X116539D01*
X109339D02*
X112139D01*
X105039D02*
X108039D01*
X100339D02*
X103939D01*
X96439D02*
X99439D01*
X91739D02*
X95339D01*
X88539D02*
X91039D01*
X84839D02*
X85739D01*
X79239D02*
X82039D01*
X75839D02*
X78039D01*
X120039Y139232D02*
X123839D01*
X117039D02*
X119339D01*
X113839D02*
X116539D01*
X109439D02*
X112339D01*
X100339D02*
X107939D01*
X91739D02*
X99339D01*
X88239D02*
X90939D01*
X84639D02*
X86339D01*
X79339D02*
X82139D01*
X75839D02*
X78039D01*
X120039Y139332D02*
X124039D01*
X117039D02*
X119339D01*
X109439D02*
X116439D01*
X100339D02*
X107839D01*
X91739D02*
X99239D01*
X84539D02*
X90939D01*
X79539D02*
X82239D01*
X75839D02*
X78039D01*
X120039Y139432D02*
X124139D01*
X117039D02*
X119339D01*
X109539D02*
X116439D01*
X100339D02*
X107839D01*
X91739D02*
X99239D01*
X84439D02*
X90839D01*
X79639D02*
X82439D01*
X75839D02*
X78039D01*
X120039Y139532D02*
X124339D01*
X117039D02*
X119339D01*
X109639D02*
X116339D01*
X100339D02*
X107739D01*
X91739D02*
X99139D01*
X84439D02*
X90839D01*
X79739D02*
X82539D01*
X75839D02*
X78039D01*
X120039Y139632D02*
X124339D01*
X117039D02*
X119339D01*
X109739D02*
X116239D01*
X100339D02*
X107639D01*
X91739D02*
X99039D01*
X84439D02*
X90739D01*
X79839D02*
X82639D01*
X75839D02*
X78039D01*
X120039Y139732D02*
X124439D01*
X117039D02*
X119339D01*
X109839D02*
X116139D01*
X100339D02*
X107539D01*
X91739D02*
X98939D01*
X84339D02*
X90739D01*
X79939D02*
X82739D01*
X75839D02*
X78039D01*
X120039Y139832D02*
X124539D01*
X117039D02*
X119339D01*
X109939D02*
X116039D01*
X100339D02*
X107439D01*
X91739D02*
X98839D01*
X84339D02*
X90639D01*
X80039D02*
X82839D01*
X75839D02*
X78039D01*
X120039Y139932D02*
X124539D01*
X117039D02*
X119339D01*
X110039D02*
X115939D01*
X100339D02*
X107339D01*
X91739D02*
X98739D01*
X84339D02*
X90539D01*
X80139D02*
X82939D01*
X75839D02*
X78039D01*
X120039Y140032D02*
X124539D01*
X117039D02*
X119339D01*
X110139D02*
X115839D01*
X100339D02*
X107239D01*
X91739D02*
X98639D01*
X84339D02*
X90439D01*
X80339D02*
X83039D01*
X75839D02*
X78039D01*
X120039Y140132D02*
X124539D01*
X117039D02*
X119339D01*
X110339D02*
X115739D01*
X102539D02*
X107139D01*
X100339D02*
X102439D01*
X93939D02*
X98539D01*
X91739D02*
X93839D01*
X84339D02*
X90339D01*
X80439D02*
X83139D01*
X75839D02*
X78039D01*
X120039Y140232D02*
X124639D01*
X117039D02*
X119339D01*
X110439D02*
X115639D01*
X102639D02*
X107039D01*
X100339D02*
X102339D01*
X94039D02*
X98439D01*
X91739D02*
X93739D01*
X84339D02*
X90239D01*
X80539D02*
X83339D01*
X75839D02*
X78039D01*
X120039Y140332D02*
X124639D01*
X117039D02*
X119339D01*
X110639D02*
X115439D01*
X102839D02*
X106839D01*
X100339D02*
X102239D01*
X94139D02*
X98239D01*
X91739D02*
X93639D01*
X84339D02*
X90139D01*
X80639D02*
X83439D01*
X75839D02*
X78039D01*
X120039Y140432D02*
X124639D01*
X117039D02*
X119339D01*
X110839D02*
X115239D01*
X102939D02*
X106739D01*
X100339D02*
X102139D01*
X94339D02*
X98139D01*
X91739D02*
X93539D01*
X84639D02*
X90039D01*
X80739D02*
X83539D01*
X75839D02*
X78039D01*
X120039Y140532D02*
X124639D01*
X117039D02*
X119339D01*
X111039D02*
X115039D01*
X103139D02*
X106539D01*
X100339D02*
X102039D01*
X94539D02*
X97939D01*
X91739D02*
X93339D01*
X84939D02*
X89839D01*
X80839D02*
X83639D01*
X75839D02*
X78039D01*
X120039Y140632D02*
X124639D01*
X117039D02*
X119339D01*
X111339D02*
X114839D01*
X103339D02*
X106339D01*
X100339D02*
X101739D01*
X94739D02*
X97739D01*
X91739D02*
X93139D01*
X85339D02*
X89639D01*
X81039D02*
X83739D01*
X75839D02*
X78039D01*
X120039Y140732D02*
X124639D01*
X117039D02*
X119339D01*
X111639D02*
X114539D01*
X103539D02*
X106039D01*
X94939D02*
X97439D01*
X85739D02*
X89439D01*
X81139D02*
X83839D01*
X75839D02*
X78039D01*
X120039Y140832D02*
X122239D01*
X117039D02*
X119339D01*
X112139D02*
X114139D01*
X103839D02*
X105739D01*
X95239D02*
X97139D01*
X86339D02*
X89039D01*
X81339D02*
X83939D01*
X75839D02*
X78039D01*
X120039Y140932D02*
X122339D01*
X117039D02*
X119339D01*
X113039D02*
X113339D01*
X104639D02*
X104939D01*
X96039D02*
X96339D01*
X81539D02*
X83939D01*
X75839D02*
X78039D01*
X120039Y141032D02*
X122339D01*
X117039D02*
X119339D01*
X81739D02*
X83739D01*
X75839D02*
X78039D01*
X120039Y141132D02*
X122339D01*
X117039D02*
X119339D01*
X82039D02*
X83439D01*
X75839D02*
X78039D01*
X120039Y141232D02*
X122339D01*
X117039D02*
X119339D01*
X82639D02*
X83039D01*
X75839D02*
X78039D01*
X120039Y141332D02*
X122339D01*
X117039D02*
X119339D01*
X75839D02*
X78039D01*
X120039Y141432D02*
X122339D01*
X117039D02*
X119339D01*
X75839D02*
X78039D01*
X120039Y141532D02*
X122339D01*
X117039D02*
X119339D01*
X75839D02*
X78039D01*
X120039Y141632D02*
X122339D01*
X117039D02*
X119339D01*
X75839D02*
X78039D01*
X120039Y141732D02*
X122339D01*
X117039D02*
X119339D01*
X75839D02*
X78039D01*
X120039Y141832D02*
X122339D01*
X117039D02*
X119339D01*
X75839D02*
X78039D01*
X120039Y141932D02*
X122339D01*
X117039D02*
X119339D01*
X75839D02*
X78039D01*
X120039Y142032D02*
X122339D01*
X117039D02*
X119339D01*
X75839D02*
X78039D01*
X120039Y142132D02*
X122339D01*
X117039D02*
X119339D01*
X75839D02*
X78039D01*
X120039Y142232D02*
X122339D01*
X117039D02*
X119339D01*
X75839D02*
X78039D01*
X120039Y142332D02*
X122339D01*
X117039D02*
X119339D01*
X75839D02*
X78039D01*
X120039Y142432D02*
X122339D01*
X117039D02*
X119339D01*
X75839D02*
X78039D01*
X120039Y142532D02*
X122339D01*
X117039D02*
X119339D01*
X75839D02*
X78039D01*
X120039Y142632D02*
X122339D01*
X117039D02*
X119339D01*
X75839D02*
X78039D01*
X120039Y142732D02*
X122339D01*
X117039D02*
X119339D01*
X75839D02*
X78039D01*
X120039Y142832D02*
X122239D01*
X117039D02*
X119339D01*
X75839D02*
X78039D01*
X120039Y142932D02*
X122239D01*
X117039D02*
X119339D01*
X75839D02*
X78039D01*
X120039Y143032D02*
X122239D01*
X117039D02*
X119339D01*
X75839D02*
X78039D01*
X120039Y143132D02*
X122239D01*
X117039D02*
X119339D01*
X75839D02*
X78039D01*
X120039Y143232D02*
X122239D01*
X117039D02*
X119239D01*
X75839D02*
X77939D01*
X120039Y143332D02*
X122139D01*
X117039D02*
X119239D01*
X75839D02*
X77939D01*
X120039Y143432D02*
X122139D01*
X117039D02*
X119139D01*
X75839D02*
X77939D01*
X120039Y143532D02*
X122039D01*
X117039D02*
X119139D01*
X75839D02*
X77839D01*
X120039Y143632D02*
X121939D01*
X117039D02*
X119039D01*
X75839D02*
X77739D01*
X120039Y143732D02*
X121839D01*
X117039D02*
X118939D01*
X75839D02*
X77639D01*
X120039Y143832D02*
X121739D01*
X117039D02*
X118839D01*
X75839D02*
X77539D01*
X120039Y143932D02*
X121539D01*
X117039D02*
X118639D01*
X75839D02*
X77339D01*
X120039Y144032D02*
X121139D01*
X117039D02*
X118239D01*
X75839D02*
X76939D01*
D31*
X262323Y185728D02*
X331693D01*
Y190650D01*
Y185728D02*
X383346D01*
X257756Y190650D02*
X313976D01*
X331693D02*
X387913D01*
X262323Y160728D02*
Y185728D01*
X313976D02*
Y190650D01*
X257756Y155807D02*
X387913D01*
X257756D02*
Y190650D01*
X387913Y155807D02*
Y190650D01*
X262323Y160728D02*
X383346D01*
Y185728D01*
X387579Y120906D02*
Y152126D01*
Y71969D02*
Y103189D01*
X382657D02*
X387579D01*
X382657Y120906D02*
X387579D01*
X352736Y71969D02*
Y152126D01*
Y71969D02*
X387579D01*
X352736Y152126D02*
X387579D01*
X382657Y76535D02*
Y147559D01*
X357657Y76535D02*
Y147559D01*
Y76535D02*
X382657D01*
X357657Y147559D02*
X382657D01*
X280512Y6398D02*
Y46752D01*
X296260Y6398D02*
Y46752D01*
X262795Y6398D02*
Y46752D01*
X278543Y6398D02*
Y46752D01*
X167559Y5217D02*
X244331D01*
X167559Y29232D02*
X244331D01*
X167559Y5217D02*
Y29232D01*
X244331Y5217D02*
Y29232D01*
X115157Y6398D02*
Y46752D01*
X130906Y6398D02*
Y46752D01*
X97441Y6398D02*
Y46752D01*
X113189Y6398D02*
Y46752D01*
X79724Y6398D02*
Y46752D01*
X95472Y6398D02*
Y46752D01*
X6122Y71969D02*
Y103189D01*
Y120906D02*
Y152126D01*
Y120906D02*
X11043D01*
X6122Y103189D02*
X11043D01*
X40965Y71969D02*
Y152126D01*
X6122D02*
X40965D01*
X6122Y71969D02*
X40965D01*
X11043Y76535D02*
Y147559D01*
X36043Y76535D02*
Y147559D01*
X11043D02*
X36043D01*
X11043Y76535D02*
X36043D01*
X10354Y185728D02*
X79724D01*
Y190650D01*
Y185728D02*
X131378D01*
X5787Y190650D02*
X62008D01*
X79724D02*
X135945D01*
X10354Y160728D02*
Y185728D01*
X62008D02*
Y190650D01*
X5787Y155807D02*
X135945D01*
X5787D02*
Y190650D01*
X135945Y155807D02*
Y190650D01*
X10354Y160728D02*
X131378D01*
Y185728D01*
X298228Y6398D02*
Y46752D01*
X313976Y6398D02*
Y46752D01*
X60215Y127718D02*
X58216D01*
X59216D01*
Y122719D01*
X58216Y121720D01*
X57216D01*
X56217Y122719D01*
X62215Y127718D02*
X66213D01*
X64214D01*
Y121720D01*
X68213D02*
Y125718D01*
X70212Y127718D01*
X72211Y125718D01*
Y121720D01*
Y124719D01*
X68213D01*
X78209Y126718D02*
X77210Y127718D01*
X75210D01*
X74211Y126718D01*
Y122719D01*
X75210Y121720D01*
X77210D01*
X78209Y122719D01*
Y124719D01*
X76210D01*
X86207Y127718D02*
X88206D01*
X87207D01*
Y121720D01*
X86207D01*
X88206D01*
X91205D02*
X94204D01*
X95204Y122719D01*
X94204Y123719D01*
X92205D01*
X91205Y124719D01*
X92205Y125718D01*
X95204D01*
X98203Y121720D02*
X100202D01*
X101202Y122719D01*
Y124719D01*
X100202Y125718D01*
X98203D01*
X97203Y124719D01*
Y122719D01*
X98203Y121720D01*
X103201D02*
X105201D01*
X104201D01*
Y127718D01*
X103201D01*
X109199Y125718D02*
X111199D01*
X112198Y124719D01*
Y121720D01*
X109199D01*
X108200Y122719D01*
X109199Y123719D01*
X112198D01*
X115198Y126718D02*
Y125718D01*
X114198D01*
X116197D01*
X115198D01*
Y122719D01*
X116197Y121720D01*
X120196D02*
X122195D01*
X123195Y122719D01*
Y124719D01*
X122195Y125718D01*
X120196D01*
X119196Y124719D01*
Y122719D01*
X120196Y121720D01*
X125194Y125718D02*
Y121720D01*
Y123719D01*
X126194Y124719D01*
X127194Y125718D01*
X128193D01*
X137190Y127718D02*
Y123719D01*
X139190Y121720D01*
X141189Y123719D01*
Y127718D01*
X143188Y121720D02*
X145188D01*
X144188D01*
Y127718D01*
X143188Y126718D01*
X89706Y112122D02*
Y118120D01*
X92705D01*
X93704Y117120D01*
Y115121D01*
X92705Y114121D01*
X89706D01*
X95704Y118120D02*
Y112122D01*
Y114121D01*
X99703Y118120D01*
X96703Y115121D01*
X99703Y112122D01*
X101702D02*
Y116121D01*
X103701Y118120D01*
X105701Y116121D01*
Y112122D01*
Y115121D01*
X101702D01*
X107700Y112122D02*
Y118120D01*
X110699D01*
X111699Y117120D01*
Y115121D01*
X110699Y114121D01*
X107700D01*
X49878Y75114D02*
Y77213D01*
Y76164D01*
X53027D01*
X50403Y80362D02*
X49878Y79837D01*
Y78787D01*
X50403Y78263D01*
X52502D01*
X53027Y78787D01*
Y79837D01*
X52502Y80362D01*
X49878Y81411D02*
X53027D01*
X51977D01*
X49878Y83510D01*
X51453Y81936D01*
X53027Y83510D01*
X56057Y75639D02*
Y77738D01*
Y76688D01*
X59205D01*
X56057Y78787D02*
X59205D01*
Y80362D01*
X58680Y80887D01*
X56581D01*
X56057Y80362D01*
Y78787D01*
Y81936D02*
Y82986D01*
Y82461D01*
X59205D01*
Y81936D01*
Y82986D01*
X65383Y75114D02*
X62235D01*
Y76688D01*
X62760Y77213D01*
X63809D01*
X64334Y76688D01*
Y75114D01*
Y76164D02*
X65383Y77213D01*
X62760Y80362D02*
X62235Y79837D01*
Y78787D01*
X62760Y78263D01*
X63284D01*
X63809Y78787D01*
Y79837D01*
X64334Y80362D01*
X64859D01*
X65383Y79837D01*
Y78787D01*
X64859Y78263D01*
X62235Y81411D02*
Y83510D01*
Y82461D01*
X65383D01*
X68413Y75114D02*
Y77213D01*
Y76164D01*
X71562D01*
X68413Y78263D02*
X71562D01*
Y79837D01*
X71037Y80362D01*
X68938D01*
X68413Y79837D01*
Y78263D01*
Y82986D02*
Y81936D01*
X68938Y81411D01*
X71037D01*
X71562Y81936D01*
Y82986D01*
X71037Y83510D01*
X68938D01*
X68413Y82986D01*
X74592Y75114D02*
Y77213D01*
Y76164D01*
X77740D01*
Y78263D02*
X74592D01*
X75641Y79312D01*
X74592Y80362D01*
X77740D01*
X75116Y83510D02*
X74592Y82986D01*
Y81936D01*
X75116Y81411D01*
X75641D01*
X76166Y81936D01*
Y82986D01*
X76691Y83510D01*
X77215D01*
X77740Y82986D01*
Y81936D01*
X77215Y81411D01*
X320744Y74819D02*
Y76918D01*
Y75868D01*
X323893D01*
Y77968D02*
X320744D01*
X321794Y79017D01*
X320744Y80067D01*
X323893D01*
X321269Y83215D02*
X320744Y82690D01*
Y81641D01*
X321269Y81116D01*
X321794D01*
X322319Y81641D01*
Y82690D01*
X322844Y83215D01*
X323368D01*
X323893Y82690D01*
Y81641D01*
X323368Y81116D01*
X326923Y74819D02*
Y76918D01*
Y75868D01*
X330071D01*
X326923Y77968D02*
X330071D01*
Y79542D01*
X329547Y80067D01*
X327448D01*
X326923Y79542D01*
Y77968D01*
Y82690D02*
Y81641D01*
X327448Y81116D01*
X329547D01*
X330071Y81641D01*
Y82690D01*
X329547Y83215D01*
X327448D01*
X326923Y82690D01*
X336250Y74819D02*
X333101D01*
Y76393D01*
X333626Y76918D01*
X334675D01*
X335200Y76393D01*
Y74819D01*
Y75868D02*
X336250Y76918D01*
X333626Y80067D02*
X333101Y79542D01*
Y78492D01*
X333626Y77968D01*
X334151D01*
X334675Y78492D01*
Y79542D01*
X335200Y80067D01*
X335725D01*
X336250Y79542D01*
Y78492D01*
X335725Y77968D01*
X333101Y81116D02*
Y83215D01*
Y82166D01*
X336250D01*
X339279Y75344D02*
Y77443D01*
Y76393D01*
X342428D01*
X339279Y78492D02*
X342428D01*
Y80067D01*
X341903Y80591D01*
X339804D01*
X339279Y80067D01*
Y78492D01*
Y81641D02*
Y82690D01*
Y82166D01*
X342428D01*
Y81641D01*
Y82690D01*
X345458Y74819D02*
Y76918D01*
Y75868D01*
X348606D01*
X345983Y80067D02*
X345458Y79542D01*
Y78492D01*
X345983Y77968D01*
X348081D01*
X348606Y78492D01*
Y79542D01*
X348081Y80067D01*
X345458Y81116D02*
X348606D01*
X347557D01*
X345458Y83215D01*
X347032Y81641D01*
X348606Y83215D01*
X248939Y171321D02*
X247939Y170322D01*
Y168323D01*
X248939Y167323D01*
X252937D01*
X253937Y168323D01*
Y170322D01*
X252937Y171321D01*
X247939Y176320D02*
Y174321D01*
X248939Y173321D01*
X252937D01*
X253937Y174321D01*
Y176320D01*
X252937Y177320D01*
X248939D01*
X247939Y176320D01*
X253937Y179319D02*
X247939D01*
X253937Y183318D01*
X247939D01*
Y189316D02*
X248939Y187316D01*
X250938Y185317D01*
X252937D01*
X253937Y186317D01*
Y188316D01*
X252937Y189316D01*
X251938D01*
X250938Y188316D01*
Y185317D01*
X344411Y121125D02*
X343411Y120125D01*
Y118126D01*
X344411Y117126D01*
X348410D01*
X349410Y118126D01*
Y120125D01*
X348410Y121125D01*
X343411Y126123D02*
Y124124D01*
X344411Y123124D01*
X348410D01*
X349410Y124124D01*
Y126123D01*
X348410Y127123D01*
X344411D01*
X343411Y126123D01*
X349410Y129122D02*
X343411D01*
X349410Y133121D01*
X343411D01*
X349410Y139119D02*
Y135120D01*
X345411Y139119D01*
X344411D01*
X343411Y138119D01*
Y136120D01*
X344411Y135120D01*
X255828Y16400D02*
X254829Y15401D01*
Y13401D01*
X255828Y12402D01*
X259827D01*
X260827Y13401D01*
Y15401D01*
X259827Y16400D01*
X254829Y21399D02*
Y19399D01*
X255828Y18400D01*
X259827D01*
X260827Y19399D01*
Y21399D01*
X259827Y22398D01*
X255828D01*
X254829Y21399D01*
X260827Y24398D02*
X254829D01*
X260827Y28396D01*
X254829D01*
X260827Y30396D02*
Y32395D01*
Y31395D01*
X254829D01*
X255828Y30396D01*
Y35394D02*
X254829Y36394D01*
Y38393D01*
X255828Y39393D01*
X256828D01*
X257828Y38393D01*
Y37394D01*
Y38393D01*
X258827Y39393D01*
X259827D01*
X260827Y38393D01*
Y36394D01*
X259827Y35394D01*
X247954Y16400D02*
X246955Y15401D01*
Y13401D01*
X247954Y12402D01*
X251953D01*
X252953Y13401D01*
Y15401D01*
X251953Y16400D01*
X246955Y21399D02*
Y19399D01*
X247954Y18400D01*
X251953D01*
X252953Y19399D01*
Y21399D01*
X251953Y22398D01*
X247954D01*
X246955Y21399D01*
X252953Y24398D02*
X246955D01*
X252953Y28396D01*
X246955D01*
X252953Y30396D02*
Y32395D01*
Y31395D01*
X246955D01*
X247954Y30396D01*
X252953Y39393D02*
Y35394D01*
X248954Y39393D01*
X247954D01*
X246955Y38393D01*
Y36394D01*
X247954Y35394D01*
X270079Y65453D02*
Y71451D01*
X273078D01*
X274077Y70451D01*
Y68452D01*
X273078Y67452D01*
X270079D01*
X272078D02*
X274077Y65453D01*
X280076Y71451D02*
X278076Y70451D01*
X276077Y68452D01*
Y66452D01*
X277077Y65453D01*
X279076D01*
X280076Y66452D01*
Y67452D01*
X279076Y68452D01*
X276077D01*
X299135Y113251D02*
X298136Y112251D01*
Y110252D01*
X299135Y109252D01*
X303134D01*
X304134Y110252D01*
Y112251D01*
X303134Y113251D01*
X299135Y115250D02*
X298136Y116250D01*
Y118249D01*
X299135Y119249D01*
X300135D01*
X301135Y118249D01*
X302134Y119249D01*
X303134D01*
X304134Y118249D01*
Y116250D01*
X303134Y115250D01*
X302134D01*
X301135Y116250D01*
X300135Y115250D01*
X299135D01*
X301135Y116250D02*
Y118249D01*
X306102Y72835D02*
X300104D01*
Y75834D01*
X301104Y76833D01*
X303103D01*
X304103Y75834D01*
Y72835D01*
Y74834D02*
X306102Y76833D01*
X300104Y82831D02*
Y78833D01*
X303103D01*
X302104Y80832D01*
Y81832D01*
X303103Y82831D01*
X305103D01*
X306102Y81832D01*
Y79832D01*
X305103Y78833D01*
X315852Y89629D02*
Y87629D01*
Y88629D01*
X320851D01*
X321850Y87629D01*
Y86630D01*
X320851Y85630D01*
X321850Y91628D02*
X315852D01*
Y94627D01*
X316852Y95627D01*
X318851D01*
X319851Y94627D01*
Y91628D01*
X316852Y97626D02*
X315852Y98626D01*
Y100625D01*
X316852Y101625D01*
X317852D01*
X318851Y100625D01*
Y99625D01*
Y100625D01*
X319851Y101625D01*
X320851D01*
X321850Y100625D01*
Y98626D01*
X320851Y97626D01*
X288447Y116219D02*
X287448Y117218D01*
X285449D01*
X284449Y116219D01*
Y112220D01*
X285449Y111221D01*
X287448D01*
X288447Y112220D01*
X290447Y117218D02*
X294446D01*
Y116219D01*
X290447Y112220D01*
Y111221D01*
X238112Y138841D02*
X237112Y137842D01*
Y135842D01*
X238112Y134843D01*
X242111D01*
X243110Y135842D01*
Y137842D01*
X242111Y138841D01*
X243110Y143840D02*
X237112D01*
X240111Y140841D01*
Y144839D01*
X216535Y128937D02*
Y134935D01*
X219534D01*
X220534Y133935D01*
Y131936D01*
X219534Y130936D01*
X216535D01*
X218535D02*
X220534Y128937D01*
X225533D02*
Y134935D01*
X222533Y131936D01*
X226532D01*
X216535Y150591D02*
Y156589D01*
X219534D01*
X220534Y155589D01*
Y153590D01*
X219534Y152590D01*
X216535D01*
X218535D02*
X220534Y150591D01*
X226532D02*
X222533D01*
X226532Y154589D01*
Y155589D01*
X225533Y156589D01*
X223533D01*
X222533Y155589D01*
X213506Y184117D02*
X212506Y183117D01*
Y181118D01*
X213506Y180118D01*
X217504D01*
X218504Y181118D01*
Y183117D01*
X217504Y184117D01*
X213506Y186116D02*
X212506Y187116D01*
Y189115D01*
X213506Y190115D01*
X214505D01*
X215505Y189115D01*
Y188116D01*
Y189115D01*
X216505Y190115D01*
X217504D01*
X218504Y189115D01*
Y187116D01*
X217504Y186116D01*
X189961Y181195D02*
X191960D01*
X190960D01*
Y175197D01*
X189961D01*
X191960D01*
X198958Y180195D02*
X197958Y181195D01*
X195959D01*
X194959Y180195D01*
Y176197D01*
X195959Y175197D01*
X197958D01*
X198958Y176197D01*
X200957Y175197D02*
X202956D01*
X201957D01*
Y181195D01*
X200957Y180195D01*
X172167Y186085D02*
X171167Y185086D01*
Y183086D01*
X172167Y182087D01*
X176166D01*
X177165Y183086D01*
Y185086D01*
X176166Y186085D01*
X177165Y192083D02*
Y188085D01*
X173167Y192083D01*
X172167D01*
X171167Y191084D01*
Y189084D01*
X172167Y188085D01*
X167323Y149606D02*
Y155604D01*
X170322D01*
X171321Y154605D01*
Y152605D01*
X170322Y151606D01*
X167323D01*
X169322D02*
X171321Y149606D01*
X173321Y154605D02*
X174321Y155604D01*
X176320D01*
X177320Y154605D01*
Y153605D01*
X176320Y152605D01*
X175320D01*
X176320D01*
X177320Y151606D01*
Y150606D01*
X176320Y149606D01*
X174321D01*
X173321Y150606D01*
X167323Y157480D02*
Y163478D01*
X170322D01*
X171321Y162479D01*
Y160479D01*
X170322Y159480D01*
X167323D01*
X169322D02*
X171321Y157480D01*
X173321D02*
X175320D01*
X174321D01*
Y163478D01*
X173321Y162479D01*
X148545Y138841D02*
X147545Y137842D01*
Y135842D01*
X148545Y134843D01*
X152544D01*
X153543Y135842D01*
Y137842D01*
X152544Y138841D01*
X153543Y140841D02*
Y142840D01*
Y141840D01*
X147545D01*
X148545Y140841D01*
X150455Y119679D02*
X148456D01*
X149456D01*
Y114681D01*
X148456Y113681D01*
X147456D01*
X146457Y114681D01*
X152455Y113681D02*
Y119679D01*
X155454D01*
X156454Y118679D01*
Y116680D01*
X155454Y115680D01*
X152455D01*
X162452Y113681D02*
X158453D01*
X162452Y117680D01*
Y118679D01*
X161452Y119679D01*
X159452D01*
X158453Y118679D01*
X132978Y98524D02*
X137977D01*
X138976Y99523D01*
Y101523D01*
X137977Y102522D01*
X132978D01*
X133978Y104522D02*
X132978Y105521D01*
Y107521D01*
X133978Y108520D01*
X134978D01*
X135977Y107521D01*
Y106521D01*
Y107521D01*
X136977Y108520D01*
X137977D01*
X138976Y107521D01*
Y105521D01*
X137977Y104522D01*
X114862Y103150D02*
Y109148D01*
X117861D01*
X118861Y108148D01*
Y106149D01*
X117861Y105149D01*
X114862D01*
X116862D02*
X118861Y103150D01*
X120860Y108148D02*
X121860Y109148D01*
X123859D01*
X124859Y108148D01*
Y107148D01*
X123859Y106149D01*
X124859Y105149D01*
Y104149D01*
X123859Y103150D01*
X121860D01*
X120860Y104149D01*
Y105149D01*
X121860Y106149D01*
X120860Y107148D01*
Y108148D01*
X121860Y106149D02*
X123859D01*
X95472Y91535D02*
X89474D01*
Y94534D01*
X90474Y95534D01*
X92473D01*
X93473Y94534D01*
Y91535D01*
Y93535D02*
X95472Y95534D01*
X89474Y97534D02*
Y101532D01*
X90474D01*
X94473Y97534D01*
X95472D01*
X119648Y69959D02*
X118649Y70959D01*
X116649D01*
X115650Y69959D01*
Y65960D01*
X116649Y64961D01*
X118649D01*
X119648Y65960D01*
X121648D02*
X122647Y64961D01*
X124647D01*
X125646Y65960D01*
Y69959D01*
X124647Y70959D01*
X122647D01*
X121648Y69959D01*
Y68959D01*
X122647Y67960D01*
X125646D01*
X90474Y75849D02*
X89474Y74849D01*
Y72850D01*
X90474Y71850D01*
X94473D01*
X95472Y72850D01*
Y74849D01*
X94473Y75849D01*
X95472Y77849D02*
Y79848D01*
Y78848D01*
X89474D01*
X90474Y77849D01*
Y82847D02*
X89474Y83846D01*
Y85846D01*
X90474Y86845D01*
X94473D01*
X95472Y85846D01*
Y83846D01*
X94473Y82847D01*
X90474D01*
X214629Y44368D02*
X213629Y45368D01*
X211630D01*
X210630Y44368D01*
Y40370D01*
X211630Y39370D01*
X213629D01*
X214629Y40370D01*
X220627Y45368D02*
X218627Y44368D01*
X216628Y42369D01*
Y40370D01*
X217628Y39370D01*
X219627D01*
X220627Y40370D01*
Y41369D01*
X219627Y42369D01*
X216628D01*
X180180Y44368D02*
X179180Y45368D01*
X177181D01*
X176181Y44368D01*
Y40370D01*
X177181Y39370D01*
X179180D01*
X180180Y40370D01*
X186178Y45368D02*
X182179D01*
Y42369D01*
X184178Y43369D01*
X185178D01*
X186178Y42369D01*
Y40370D01*
X185178Y39370D01*
X183179D01*
X182179Y40370D01*
X156496Y8951D02*
Y3952D01*
X157496Y2953D01*
X159495D01*
X160495Y3952D01*
Y8951D01*
X162494Y2953D02*
X164494D01*
X163494D01*
Y8951D01*
X162494Y7951D01*
X150513Y20731D02*
X149514Y19731D01*
Y17732D01*
X150513Y16732D01*
X154512D01*
X155512Y17732D01*
Y19731D01*
X154512Y20731D01*
X149514Y25729D02*
Y23730D01*
X150513Y22730D01*
X154512D01*
X155512Y23730D01*
Y25729D01*
X154512Y26729D01*
X150513D01*
X149514Y25729D01*
X155512Y28728D02*
X149514D01*
X155512Y32727D01*
X149514D01*
X155512Y34727D02*
Y36726D01*
Y35726D01*
X149514D01*
X150513Y34727D01*
X155512Y39725D02*
Y41724D01*
Y40725D01*
X149514D01*
X150513Y39725D01*
X142639Y20731D02*
X141640Y19731D01*
Y17732D01*
X142639Y16732D01*
X146638D01*
X147638Y17732D01*
Y19731D01*
X146638Y20731D01*
X141640Y25729D02*
Y23730D01*
X142639Y22730D01*
X146638D01*
X147638Y23730D01*
Y25729D01*
X146638Y26729D01*
X142639D01*
X141640Y25729D01*
X147638Y28728D02*
X141640D01*
X147638Y32727D01*
X141640D01*
X147638Y34727D02*
Y36726D01*
Y35726D01*
X141640D01*
X142639Y34727D01*
Y39725D02*
X141640Y40725D01*
Y42724D01*
X142639Y43724D01*
X146638D01*
X147638Y42724D01*
Y40725D01*
X146638Y39725D01*
X142639D01*
X134765Y20731D02*
X133766Y19731D01*
Y17732D01*
X134765Y16732D01*
X138764D01*
X139764Y17732D01*
Y19731D01*
X138764Y20731D01*
X133766Y25729D02*
Y23730D01*
X134765Y22730D01*
X138764D01*
X139764Y23730D01*
Y25729D01*
X138764Y26729D01*
X134765D01*
X133766Y25729D01*
X139764Y28728D02*
X133766D01*
X139764Y32727D01*
X133766D01*
X138764Y34727D02*
X139764Y35726D01*
Y37725D01*
X138764Y38725D01*
X134765D01*
X133766Y37725D01*
Y35726D01*
X134765Y34727D01*
X135765D01*
X136765Y35726D01*
Y38725D01*
X34510Y28620D02*
X33511Y29620D01*
X31512D01*
X30512Y28620D01*
Y24622D01*
X31512Y23622D01*
X33511D01*
X34510Y24622D01*
X39509Y29620D02*
X37510D01*
X36510Y28620D01*
Y24622D01*
X37510Y23622D01*
X39509D01*
X40509Y24622D01*
Y28620D01*
X39509Y29620D01*
X42508Y23622D02*
Y29620D01*
X46507Y23622D01*
Y29620D01*
X48506D02*
X52505D01*
Y28620D01*
X48506Y24622D01*
Y23622D01*
X49136Y42384D02*
X48136Y41385D01*
Y39386D01*
X49136Y38386D01*
X53134D01*
X54134Y39386D01*
Y41385D01*
X53134Y42384D01*
X48136Y47383D02*
Y45384D01*
X49136Y44384D01*
X53134D01*
X54134Y45384D01*
Y47383D01*
X53134Y48383D01*
X49136D01*
X48136Y47383D01*
X54134Y50382D02*
X48136D01*
X54134Y54381D01*
X48136D01*
X49136Y56380D02*
X48136Y57380D01*
Y59379D01*
X49136Y60379D01*
X50135D01*
X51135Y59379D01*
Y58379D01*
Y59379D01*
X52135Y60379D01*
X53134D01*
X54134Y59379D01*
Y57380D01*
X53134Y56380D01*
X34117Y68384D02*
X33117Y69384D01*
X31118D01*
X30118Y68384D01*
Y64385D01*
X31118Y63386D01*
X33117D01*
X34117Y64385D01*
X39115Y69384D02*
X37116D01*
X36116Y68384D01*
Y64385D01*
X37116Y63386D01*
X39115D01*
X40115Y64385D01*
Y68384D01*
X39115Y69384D01*
X42114Y63386D02*
Y69384D01*
X46113Y63386D01*
Y69384D01*
X48112Y63386D02*
X50112D01*
X49112D01*
Y69384D01*
X48112Y68384D01*
X143624Y171321D02*
X142624Y170322D01*
Y168323D01*
X143624Y167323D01*
X147622D01*
X148622Y168323D01*
Y170322D01*
X147622Y171321D01*
X142624Y176320D02*
Y174321D01*
X143624Y173321D01*
X147622D01*
X148622Y174321D01*
Y176320D01*
X147622Y177320D01*
X143624D01*
X142624Y176320D01*
X148622Y179319D02*
X142624D01*
X148622Y183318D01*
X142624D01*
Y189316D02*
Y185317D01*
X145623D01*
X144623Y187316D01*
Y188316D01*
X145623Y189316D01*
X147622D01*
X148622Y188316D01*
Y186317D01*
X147622Y185317D01*
X213152Y124108D02*
X211153D01*
X212153D01*
Y119110D01*
X211153Y118110D01*
X210153D01*
X209154Y119110D01*
X215152Y118110D02*
Y124108D01*
X218151D01*
X219150Y123109D01*
Y121109D01*
X218151Y120110D01*
X215152D01*
X221150Y118110D02*
X223149D01*
X222149D01*
Y124108D01*
X221150Y123109D01*
X255083Y111814D02*
Y106815D01*
X256082Y105816D01*
X258082D01*
X259081Y106815D01*
Y111814D01*
X265079Y105816D02*
X261081D01*
X265079Y109815D01*
Y110814D01*
X264080Y111814D01*
X262080D01*
X261081Y110814D01*
X328999Y30998D02*
X327999Y31998D01*
X326000D01*
X325000Y30998D01*
Y27000D01*
X326000Y26000D01*
X327999D01*
X328999Y27000D01*
X333997Y31998D02*
X331998D01*
X330998Y30998D01*
Y27000D01*
X331998Y26000D01*
X333997D01*
X334997Y27000D01*
Y30998D01*
X333997Y31998D01*
X336996Y26000D02*
Y31998D01*
X340995Y26000D01*
Y31998D01*
X342994Y30998D02*
X343994Y31998D01*
X345993D01*
X346993Y30998D01*
Y29999D01*
X345993Y28999D01*
X346993Y27999D01*
Y27000D01*
X345993Y26000D01*
X343994D01*
X342994Y27000D01*
Y27999D01*
X343994Y28999D01*
X342994Y29999D01*
Y30998D01*
X343994Y28999D02*
X345993D01*
X356999Y68698D02*
X355999Y69698D01*
X354000D01*
X353000Y68698D01*
Y64700D01*
X354000Y63700D01*
X355999D01*
X356999Y64700D01*
X361997Y69698D02*
X359998D01*
X358998Y68698D01*
Y64700D01*
X359998Y63700D01*
X361997D01*
X362997Y64700D01*
Y68698D01*
X361997Y69698D01*
X364996Y63700D02*
Y69698D01*
X368995Y63700D01*
Y69698D01*
X373993Y63700D02*
Y69698D01*
X370994Y66699D01*
X374993D01*
X317836Y39038D02*
X316837Y38038D01*
Y36039D01*
X317836Y35039D01*
X321835D01*
X322835Y36039D01*
Y38038D01*
X321835Y39038D01*
X316837Y44036D02*
Y42037D01*
X317836Y41037D01*
X321835D01*
X322835Y42037D01*
Y44036D01*
X321835Y45036D01*
X317836D01*
X316837Y44036D01*
X322835Y47036D02*
X316837D01*
X322835Y51034D01*
X316837D01*
X322835Y53034D02*
Y55033D01*
Y54033D01*
X316837D01*
X317836Y53034D01*
X322835Y61031D02*
X316837D01*
X319836Y58032D01*
Y62031D01*
D32*
X292854Y66198D02*
X297354D01*
X292854Y71598D02*
X297354D01*
X283354D02*
X288854D01*
X283354Y66198D02*
X288854D01*
X297354D02*
Y71598D01*
X283354Y66198D02*
Y71598D01*
X297976Y96988D02*
Y101488D01*
X292576Y96988D02*
Y101488D01*
Y87488D02*
Y92988D01*
X297976Y87488D02*
Y92988D01*
X292576Y101488D02*
X297976D01*
X292576Y87488D02*
X297976D01*
Y82225D02*
Y86725D01*
X292576Y82225D02*
Y86725D01*
Y72724D02*
Y78224D01*
X297976Y72724D02*
Y78224D01*
X292576Y86725D02*
X297976D01*
X292576Y72724D02*
X297976D01*
X290886Y103599D02*
X295386D01*
X290886Y108999D02*
X295386D01*
X281386D02*
X286886D01*
X281386Y103599D02*
X286886D01*
X295386D02*
Y108999D01*
X281386Y103599D02*
Y108999D01*
X229584Y136701D02*
Y141201D01*
X234983Y136701D02*
Y141201D01*
Y145201D02*
Y150701D01*
X229584Y145201D02*
Y150701D01*
Y136701D02*
X234983D01*
X229584Y150701D02*
X234983D01*
X223957Y137064D02*
X228457D01*
X223957Y142464D02*
X228457D01*
X214457D02*
X219957D01*
X214457Y137064D02*
X219957D01*
X228457D02*
Y142464D01*
X214457Y137064D02*
Y142464D01*
X223957Y142969D02*
X228457D01*
X223957Y148369D02*
X228457D01*
X214457D02*
X219957D01*
X214457Y142969D02*
X219957D01*
X228457D02*
Y148369D01*
X214457Y142969D02*
Y148369D01*
X212851Y163276D02*
Y167776D01*
X218251Y163276D02*
Y167776D01*
Y171776D02*
Y177276D01*
X212851Y171776D02*
Y177276D01*
Y163276D02*
X218251D01*
X212851Y177276D02*
X218251D01*
X171513Y165244D02*
Y169744D01*
X176913Y165244D02*
Y169744D01*
Y173744D02*
Y179244D01*
X171513Y173744D02*
Y179244D01*
Y165244D02*
X176913D01*
X171513Y179244D02*
X176913D01*
X174744Y136079D02*
X179244D01*
X174744Y141479D02*
X179244D01*
X165244D02*
X170744D01*
X165244Y136079D02*
X170744D01*
X179244D02*
Y141479D01*
X165244Y136079D02*
Y141479D01*
X174744Y141985D02*
X179244D01*
X174744Y147385D02*
X179244D01*
X165244D02*
X170744D01*
X165244Y141985D02*
X170744D01*
X179244D02*
Y147385D01*
X165244Y141985D02*
Y147385D01*
X156749Y138669D02*
Y143169D01*
X162149Y138669D02*
Y143169D01*
Y147169D02*
Y152669D01*
X156749Y147169D02*
Y152669D01*
Y138669D02*
X162149D01*
X156749Y152669D02*
X162149D01*
X98315Y108999D02*
X102815D01*
X98315Y103599D02*
X102815D01*
X106815D02*
X112315D01*
X106815Y108999D02*
X112315D01*
X98315Y103599D02*
Y108999D01*
X112315Y103599D02*
Y108999D01*
X97694Y87488D02*
Y91988D01*
X103094Y87488D02*
Y91988D01*
Y95988D02*
Y101488D01*
X97694Y95988D02*
Y101488D01*
Y87488D02*
X103094D01*
X97694Y101488D02*
X103094D01*
X99299Y70613D02*
X103799D01*
X99299Y65213D02*
X103799D01*
X107799D02*
X113299D01*
X107799Y70613D02*
X113299D01*
X99299Y65213D02*
Y70613D01*
X113299Y65213D02*
Y70613D01*
X97694Y72724D02*
Y77224D01*
X103094Y72724D02*
Y77224D01*
Y81224D02*
Y86724D01*
X97694Y81224D02*
Y86724D01*
Y72724D02*
X103094D01*
X97694Y86724D02*
X103094D01*
X209536Y37149D02*
X214036D01*
X209536Y31749D02*
X214036D01*
X218036D02*
X223535D01*
X218036Y37149D02*
X223535D01*
X209536Y31749D02*
Y37149D01*
X223535Y31749D02*
Y37149D01*
X183602Y31749D02*
X188102D01*
X183602Y37149D02*
X188102D01*
X174102D02*
X179603D01*
X174102Y31749D02*
X179603D01*
X188102D02*
Y37149D01*
X174102Y31749D02*
Y37149D01*
D33*
X311102Y94567D02*
X313102Y96567D01*
Y104567D01*
X311102Y106567D02*
X313102Y104567D01*
X301102Y106567D02*
X311102D01*
X299102Y104567D02*
X301102Y106567D01*
X299102Y96567D02*
Y104567D01*
Y96567D02*
X301102Y94567D01*
X163465Y121968D02*
X165465Y119968D01*
X173465D01*
X175465Y121968D01*
Y131968D01*
X173465Y133968D02*
X175465Y131968D01*
X165465Y133968D02*
X173465D01*
X163465Y131968D02*
X165465Y133968D01*
X17291Y22748D02*
X19291Y20748D01*
X9291Y22748D02*
X17291D01*
X7291Y20748D02*
X9291Y22748D01*
X7291Y10748D02*
Y20748D01*
Y10748D02*
X9291Y8748D01*
X17291D01*
X19291Y10748D01*
X194339Y117212D02*
X196339Y119212D01*
X186339Y117212D02*
X194339D01*
X184339Y119212D02*
X186339Y117212D01*
X184339Y119212D02*
Y129212D01*
X186339Y131212D01*
X194339D01*
X196339Y129212D01*
X374409Y10748D02*
X376409Y8748D01*
X384409D01*
X386409Y10748D01*
Y20748D01*
X384409Y22748D02*
X386409Y20748D01*
X376409Y22748D02*
X384409D01*
X374409Y20748D02*
X376409Y22748D01*
D34*
X301102Y94567D02*
X311102D01*
X301102Y84567D02*
Y104567D01*
Y84567D02*
X311102D01*
Y104567D01*
X301102D02*
X311102D01*
X190551Y135236D02*
X203150D01*
X190551Y169882D02*
X203150D01*
Y135236D02*
Y169882D01*
X190551Y135236D02*
Y169882D01*
X163465Y121968D02*
Y131968D01*
X153465D02*
X173465D01*
X153465Y121968D02*
Y131968D01*
Y121968D02*
X173465D01*
Y131968D01*
X116339Y73425D02*
X129724D01*
X116339Y99803D02*
X129724D01*
Y73425D02*
Y99803D01*
X116339Y73425D02*
Y99803D01*
X19291Y10748D02*
Y20748D01*
X9291Y10748D02*
X69291D01*
X9291D02*
Y20748D01*
X69291D01*
Y10748D02*
Y20748D01*
X186339Y119212D02*
Y129212D01*
X206339D01*
Y119212D02*
Y129212D01*
X186339Y119212D02*
X206339D01*
X196339D02*
Y129212D01*
X265945Y100787D02*
X279331D01*
X265945Y74410D02*
X279331D01*
X265945D02*
Y100787D01*
X279331Y74410D02*
Y100787D01*
X374409Y10748D02*
Y20748D01*
X324409D02*
X384409D01*
Y10748D02*
Y20748D01*
X324409Y10748D02*
X384409D01*
X324409D02*
Y20748D01*
M02*
