G04 Layer_Physical_Order=1*
G04 Layer_Color=255*
%FSLAX25Y25*%
%MOIN*%
G70*
G01*
G75*
%ADD10R,0.04500X0.03200*%
%ADD11R,0.03200X0.04500*%
%ADD12O,0.06496X0.01772*%
%ADD13R,0.08661X0.12795*%
%ADD14R,0.08661X0.03937*%
G04:AMPARAMS|DCode=15|XSize=114.96mil|YSize=37.4mil|CornerRadius=0.94mil|HoleSize=0mil|Usage=FLASHONLY|Rotation=0.000|XOffset=0mil|YOffset=0mil|HoleType=Round|Shape=RoundedRectangle|*
%AMROUNDEDRECTD15*
21,1,0.11496,0.03553,0,0,0.0*
21,1,0.11309,0.03740,0,0,0.0*
1,1,0.00187,0.05655,-0.01777*
1,1,0.00187,-0.05655,-0.01777*
1,1,0.00187,-0.05655,0.01777*
1,1,0.00187,0.05655,0.01777*
%
%ADD15ROUNDEDRECTD15*%
G04:AMPARAMS|DCode=16|XSize=114.96mil|YSize=37.4mil|CornerRadius=9.35mil|HoleSize=0mil|Usage=FLASHONLY|Rotation=0.000|XOffset=0mil|YOffset=0mil|HoleType=Round|Shape=RoundedRectangle|*
%AMROUNDEDRECTD16*
21,1,0.11496,0.01870,0,0,0.0*
21,1,0.09626,0.03740,0,0,0.0*
1,1,0.01870,0.04813,-0.00935*
1,1,0.01870,-0.04813,-0.00935*
1,1,0.01870,-0.04813,0.00935*
1,1,0.01870,0.04813,0.00935*
%
%ADD16ROUNDEDRECTD16*%
%ADD17C,0.02362*%
%ADD18C,0.01181*%
G04:AMPARAMS|DCode=19|XSize=82.68mil|YSize=82.68mil|CornerRadius=4.13mil|HoleSize=0mil|Usage=FLASHONLY|Rotation=180.000|XOffset=0mil|YOffset=0mil|HoleType=Round|Shape=RoundedRectangle|*
%AMROUNDEDRECTD19*
21,1,0.08268,0.07441,0,0,180.0*
21,1,0.07441,0.08268,0,0,180.0*
1,1,0.00827,-0.03721,0.03721*
1,1,0.00827,0.03721,0.03721*
1,1,0.00827,0.03721,-0.03721*
1,1,0.00827,-0.03721,-0.03721*
%
%ADD19ROUNDEDRECTD19*%
%ADD20R,0.06000X0.06000*%
%ADD21C,0.06000*%
%ADD22R,0.06000X0.06000*%
%ADD23C,0.08661*%
%ADD24C,0.06299*%
%ADD25C,0.03543*%
%ADD26C,0.03937*%
%ADD27C,0.02362*%
D10*
X293854Y68898D02*
D03*
X286854D02*
D03*
X291886Y106299D02*
D03*
X284886D02*
D03*
X224957Y139764D02*
D03*
X217957D02*
D03*
X224957Y145669D02*
D03*
X217957D02*
D03*
X175744Y138779D02*
D03*
X168744D02*
D03*
X175744Y144685D02*
D03*
X168744D02*
D03*
X101815Y106299D02*
D03*
X108815D02*
D03*
X102799Y67913D02*
D03*
X109799D02*
D03*
X213035Y34449D02*
D03*
X220036D02*
D03*
X184602D02*
D03*
X177603D02*
D03*
D11*
X295276Y97988D02*
D03*
Y90988D02*
D03*
Y83224D02*
D03*
Y76224D02*
D03*
X232283Y140201D02*
D03*
Y147201D02*
D03*
X215551Y166776D02*
D03*
Y173776D02*
D03*
X174213Y168744D02*
D03*
Y175744D02*
D03*
X159449Y142169D02*
D03*
Y149169D02*
D03*
X100394Y90988D02*
D03*
Y97988D02*
D03*
Y76224D02*
D03*
Y83224D02*
D03*
D12*
X207972Y141220D02*
D03*
Y143740D02*
D03*
Y146260D02*
D03*
Y148780D02*
D03*
Y151299D02*
D03*
Y153819D02*
D03*
Y156339D02*
D03*
Y158858D02*
D03*
Y161378D02*
D03*
Y163898D02*
D03*
X185728Y141220D02*
D03*
Y143740D02*
D03*
Y146260D02*
D03*
Y148780D02*
D03*
Y151299D02*
D03*
Y153819D02*
D03*
Y156339D02*
D03*
Y158858D02*
D03*
Y161378D02*
D03*
Y163898D02*
D03*
D13*
X135236Y86614D02*
D03*
X260433Y87599D02*
D03*
D14*
X110827Y77559D02*
D03*
Y86614D02*
D03*
Y95669D02*
D03*
X284843Y96654D02*
D03*
Y87599D02*
D03*
Y78543D02*
D03*
D15*
X35512Y38228D02*
D03*
X11732D02*
D03*
X35512Y43228D02*
D03*
X11732D02*
D03*
X35512Y48228D02*
D03*
X11732D02*
D03*
X35512Y53228D02*
D03*
X11732D02*
D03*
X35512Y58228D02*
D03*
X358189D02*
D03*
X381969D02*
D03*
X358189Y53228D02*
D03*
X381969D02*
D03*
X358189Y48228D02*
D03*
X381969D02*
D03*
X358189Y43228D02*
D03*
X381969D02*
D03*
X358189Y38228D02*
D03*
D16*
X11732Y58228D02*
D03*
X381969Y38228D02*
D03*
D17*
X291886Y106299D02*
X295276Y102909D01*
X288386Y46260D02*
Y60039D01*
X168744Y168744D02*
X174213D01*
X105315Y46260D02*
Y57087D01*
X123031Y46260D02*
Y63977D01*
X100394Y86614D02*
X100394D01*
X110827D01*
X14291Y24134D02*
X18957Y28799D01*
X100394Y101378D02*
X105118D01*
X289370Y86614D02*
X295276D01*
X25866Y168228D02*
X30512D01*
Y161417D02*
Y168228D01*
X55866D02*
X65866D01*
X35866D02*
X45866D01*
X55866D01*
X85866D02*
X95866D01*
X105866D01*
X65866D02*
X75866D01*
X85866D01*
X30512D02*
X35866D01*
X28543Y159449D02*
X30512Y161417D01*
X28543Y137795D02*
Y159449D01*
X5906Y137795D02*
X28543D01*
X270669Y6890D02*
Y46260D01*
X263779Y13780D02*
X270669Y6890D01*
X233268Y13780D02*
X263779D01*
X227008Y20039D02*
X233268Y13780D01*
X227008Y20039D02*
Y24606D01*
X220036Y34449D02*
X227008Y27477D01*
Y24606D02*
Y27477D01*
X207008Y28421D02*
X213035Y34449D01*
X207008Y24606D02*
Y28421D01*
X278543Y106299D02*
X284886D01*
X286854Y61571D02*
Y68898D01*
Y61571D02*
X288386Y60039D01*
X295276Y90988D02*
X299760D01*
X301181Y89567D01*
X306102D01*
X284843Y78543D02*
X289567D01*
X291886Y76224D01*
X295276D01*
X293854Y68898D02*
Y72398D01*
X295276Y73819D01*
Y76224D01*
X260433Y87599D02*
X284843D01*
X295276Y83224D02*
Y86614D01*
Y90988D01*
X288386Y87599D02*
X289370Y86614D01*
X284843Y87599D02*
X288386D01*
X295276Y97988D02*
Y102909D01*
X284843Y106256D02*
X284886Y106299D01*
X284843Y96654D02*
Y106256D01*
X374744Y29783D02*
X379409Y25118D01*
X370079Y34449D02*
X374744Y29783D01*
X370079Y38386D02*
Y69882D01*
Y34449D02*
Y38386D01*
X370236Y38228D01*
X381969D01*
X379409Y15748D02*
Y25118D01*
X358268Y81693D02*
X370079Y69882D01*
X358268Y81693D02*
Y99410D01*
X360906Y102047D01*
X365157D01*
X387795Y81693D02*
Y144685D01*
Y68110D02*
Y81693D01*
X368110D02*
X387795D01*
X365157Y84646D02*
X368110Y81693D01*
X365157Y84646D02*
Y92047D01*
Y132047D02*
Y152559D01*
X277835Y168228D02*
X287835D01*
X322835Y3937D02*
X359409D01*
X312008Y14764D02*
X322835Y3937D01*
X288386Y14764D02*
X312008D01*
X359409Y3937D02*
X383858D01*
X359409D02*
Y15748D01*
X383858Y3937D02*
X390945Y11024D01*
X232283Y147201D02*
X237752D01*
X238189Y147638D01*
X215551Y173776D02*
X221894D01*
X215551Y166776D02*
X222004D01*
X232283Y134843D02*
X232284Y134843D01*
X232283Y134843D02*
Y140201D01*
X288386Y14764D02*
X288386D01*
X288386Y6890D02*
Y14764D01*
X390945Y58071D02*
Y64961D01*
Y48228D02*
Y58071D01*
X390787Y58228D02*
X390945Y58071D01*
X381969Y58228D02*
X390787D01*
X390945Y43307D02*
Y48228D01*
X390945Y48228D02*
X390945Y48228D01*
X381969Y48228D02*
X390945D01*
X390945Y11024D02*
Y43307D01*
X390866Y43228D02*
X390945Y43307D01*
X381969Y43228D02*
X390866D01*
X288386Y46260D02*
X288386Y46260D01*
Y14764D02*
Y46260D01*
X387795Y68110D02*
X390945Y64961D01*
X379921Y152559D02*
X387795Y144685D01*
X365157Y152559D02*
X379921D01*
X357835Y159882D02*
X365157Y152559D01*
X357835Y159882D02*
Y168228D01*
X347835D02*
X357835D01*
X337835D02*
X347835D01*
X327835D02*
X337835D01*
X317835D02*
X327835D01*
X307835D02*
X317835D01*
X297835D02*
X307835D01*
X287835D02*
X297835D01*
X159449Y136811D02*
Y142169D01*
X110827Y86614D02*
X135236D01*
X100394D02*
Y90988D01*
Y83224D02*
Y86614D01*
X110827Y74410D02*
Y77559D01*
X109799Y73382D02*
X110827Y74410D01*
X109799Y67913D02*
Y73382D01*
X105118Y101378D02*
X110827Y95669D01*
X101815Y102799D02*
Y106299D01*
X100394Y101378D02*
X101815Y102799D01*
X100394Y97988D02*
Y101378D01*
X2953Y134843D02*
X5906Y137795D01*
X28543Y132047D02*
Y137795D01*
Y87599D02*
Y92047D01*
X2953Y79724D02*
Y134843D01*
Y7874D02*
X5906Y4921D01*
X73819D02*
X83661Y14764D01*
X104331D01*
X105315Y6890D02*
Y46260D01*
X34291Y5079D02*
Y15748D01*
Y5079D02*
X34449Y4921D01*
X5906D02*
X34449D01*
X73819D01*
X3780Y38228D02*
X11732D01*
X2953Y37402D02*
X3780Y38228D01*
X2953Y7874D02*
Y37402D01*
X2953Y48228D02*
X11732D01*
X2953Y48228D02*
X2953Y48228D01*
X2953Y37402D02*
Y48228D01*
X3032Y53228D02*
X11732D01*
X2953Y53150D02*
X3032Y53228D01*
X2953Y48228D02*
Y53150D01*
Y79724D01*
X14291Y15748D02*
Y24134D01*
X2953Y79724D02*
X20669D01*
X28543Y87599D01*
X18957Y28287D02*
Y28799D01*
X23622Y33465D01*
X11732Y58228D02*
X22480D01*
X23622Y33465D02*
Y64961D01*
X34449Y75787D01*
X28543Y122047D02*
X33465D01*
X34449Y121063D01*
Y75787D02*
Y121063D01*
X123031Y6890D02*
Y46260D01*
X119095Y67913D02*
X123031Y63977D01*
X109799Y67913D02*
X119095D01*
X102799Y59602D02*
Y67913D01*
Y59602D02*
X105315Y57087D01*
X94051Y83224D02*
X100394D01*
X87598Y76772D02*
X94051Y83224D01*
X168744Y175744D02*
X174213D01*
X168744Y168744D02*
X169181Y168307D01*
X156059Y149169D02*
X159449D01*
X153543Y146653D02*
X156059Y149169D01*
X108815Y106299D02*
Y111657D01*
X107283Y113189D02*
X108815Y111657D01*
X177008Y24606D02*
Y33854D01*
X177603Y34449D01*
X187008Y24606D02*
Y28543D01*
X184602Y30949D02*
X187008Y28543D01*
X184602Y30949D02*
Y34449D01*
D18*
X314961Y127953D02*
X324803Y118110D01*
X339567Y53150D02*
Y70965D01*
X63976Y70866D02*
Y112205D01*
Y25433D02*
Y38386D01*
X324803Y70866D02*
Y117126D01*
Y38386D02*
Y70866D01*
X329724D02*
Y107283D01*
Y48228D02*
Y70866D01*
X334646D02*
Y112205D01*
Y58071D02*
Y70866D01*
X339567Y70965D02*
Y126969D01*
X344488Y70866D02*
Y97441D01*
Y43307D02*
Y70866D01*
X73819D02*
Y107283D01*
Y58071D02*
Y70866D01*
X68898D02*
Y117126D01*
Y48228D02*
Y70866D01*
X63976Y38386D02*
Y70866D01*
X59055D02*
Y83661D01*
Y43307D02*
Y70866D01*
X54134D02*
Y123031D01*
Y53150D02*
Y70866D01*
X207972Y146260D02*
X217957D01*
X334646Y35433D02*
Y58071D01*
X350551Y58228D02*
X358189D01*
X339567Y53150D02*
X339646Y53228D01*
X350472D02*
X358189D01*
X329724Y21969D02*
Y48228D01*
X350394Y48228D02*
X358189D01*
X324803Y24606D02*
Y38386D01*
X350551Y38228D02*
X358189D01*
X344488Y38386D02*
Y43307D01*
X344567Y43228D01*
X358189D01*
X344488Y97441D02*
Y133858D01*
X329724Y107283D02*
Y123031D01*
X339567Y126969D02*
Y130905D01*
X324803Y117126D02*
Y118110D01*
X334646Y112205D02*
Y127953D01*
Y135827D02*
X339567Y130905D01*
X327756Y142717D02*
X334646Y135827D01*
X322835Y147638D02*
X330709D01*
X261811D02*
X322835D01*
X303150Y132874D02*
X319882D01*
X265748D02*
X303150D01*
X293307Y137795D02*
X324803D01*
X264764D02*
X293307D01*
X263648Y142717D02*
X327756D01*
X330709Y147638D02*
X344488Y133858D01*
X250026Y156339D02*
X263648Y142717D01*
X250591Y158858D02*
X261811Y147638D01*
X247323Y151299D02*
X265748Y132874D01*
X229331Y127953D02*
X314961D01*
X224957Y132327D02*
X229331Y127953D01*
X321850Y21654D02*
X324803Y24606D01*
X321850Y10827D02*
Y21654D01*
Y10827D02*
X324803Y7874D01*
X349409Y11811D02*
Y15748D01*
X345472Y7874D02*
X349409Y11811D01*
X324803Y7874D02*
X345472D01*
X319882Y132874D02*
X329724Y123031D01*
X329409Y21654D02*
X329724Y21969D01*
X224957Y132327D02*
Y139764D01*
Y145669D01*
X229524Y147201D02*
X232283D01*
X207972Y151299D02*
X247323D01*
X207972Y153819D02*
X248740D01*
X207972Y156339D02*
X250026D01*
X207972Y158858D02*
X250591D01*
X248740Y153819D02*
X264764Y137795D01*
X227865Y148860D02*
X229524Y147201D01*
X215048Y148860D02*
X227865D01*
X207972Y138484D02*
X210630Y135827D01*
X207972Y138484D02*
Y141220D01*
X329409Y15748D02*
Y21654D01*
X324803Y137795D02*
X334646Y127953D01*
X214967Y148780D02*
X215048Y148860D01*
X207972Y148780D02*
X214967D01*
X339409Y15748D02*
Y30669D01*
X334646Y35433D02*
X339409Y30669D01*
X216831Y139764D02*
X217957D01*
X212855Y143740D02*
X216831Y139764D01*
X207972Y143740D02*
X212855D01*
X369409Y15748D02*
Y24291D01*
X364173Y29528D02*
X369409Y24291D01*
X353346Y29528D02*
X364173D01*
X344488Y38386D02*
X353346Y29528D01*
X210193Y173776D02*
X215551D01*
X207972Y171555D02*
X210193Y173776D01*
X207972Y163898D02*
Y171555D01*
X215551Y163386D02*
Y166776D01*
X213543Y161378D02*
X215551Y163386D01*
X207972Y161378D02*
X213543D01*
X168744Y127516D02*
Y138779D01*
X165354Y144685D02*
X168744D01*
X164370Y143701D02*
X165354Y144685D01*
X185512Y141220D02*
X185728D01*
X181319Y136811D02*
X185728Y141220D01*
X181102Y136811D02*
X181319D01*
X165755Y148780D02*
X165835Y148860D01*
X159838Y148780D02*
X165755D01*
X159449Y149169D02*
X159838Y148780D01*
X182126Y143740D02*
X185728D01*
X177165Y138779D02*
X182126Y143740D01*
X175744Y138779D02*
X177165D01*
X180709Y146260D02*
X185728D01*
X179134Y144685D02*
X180709Y146260D01*
X175744Y144685D02*
X179134D01*
X164370Y135827D02*
Y143701D01*
X158465Y129921D02*
X164370Y135827D01*
X158465Y126969D02*
Y129921D01*
X100394Y72835D02*
Y76224D01*
X102799Y67913D02*
Y70429D01*
X100394Y72835D02*
X101378Y71850D01*
X102799Y70429D01*
X165835Y148860D02*
X178653D01*
X178733Y148780D01*
X185728D01*
X170551Y151299D02*
X185728D01*
X172953Y153819D02*
X185728D01*
X151656Y160646D02*
X170063D01*
X174370Y156339D01*
X185728D01*
X150031Y162827D02*
X171819D01*
X175787Y158858D01*
X185728D01*
X64291Y15748D02*
X68898Y20354D01*
X153543Y155512D02*
X166339D01*
X170551Y151299D01*
X152559Y158465D02*
X168307D01*
X172953Y153819D01*
X59055Y123031D02*
X73819Y137795D01*
X63976Y123031D02*
X73819Y132874D01*
X126969D01*
X152559Y158465D01*
X54291Y15748D02*
X63976Y25433D01*
X168465Y121221D02*
Y126969D01*
X165354Y118110D02*
X168465Y121221D01*
X68898Y123031D02*
X73819Y127953D01*
Y113189D02*
X78740Y118110D01*
X44291Y9843D02*
Y15748D01*
X49213Y24606D02*
X54134Y29528D01*
X29528Y24606D02*
X49213D01*
X24291Y19370D02*
X29528Y24606D01*
X24291Y15748D02*
Y19370D01*
X35512Y38228D02*
X43150D01*
X63819D02*
X63976Y38386D01*
X35512Y43228D02*
X35590Y43307D01*
X35512Y48228D02*
X43307D01*
X35590Y43307D02*
X43307D01*
X68898Y20354D02*
Y48228D01*
X35512Y53228D02*
X54055D01*
X54134Y53150D01*
Y29528D02*
Y53150D01*
X35512Y58228D02*
X43150D01*
X73819Y9843D02*
Y58071D01*
X59055Y83661D02*
Y123031D01*
X63819Y112047D02*
X63976Y112205D01*
Y123031D01*
X73819Y107283D02*
Y113189D01*
X68898Y117126D02*
Y123031D01*
X18543Y132047D02*
X23622Y126969D01*
X50197D01*
X54134Y123031D01*
X70866Y139764D01*
X128805Y137795D02*
X151656Y160646D01*
X70866Y139764D02*
X73819Y142717D01*
X129921D02*
X150031Y162827D01*
X73819Y142717D02*
X129921D01*
X125984Y127953D02*
X153543Y155512D01*
X73819Y127953D02*
X125984D01*
X78740Y118110D02*
X80709D01*
X165354D01*
X73819Y137795D02*
X90551D01*
X128805D01*
X72835Y8858D02*
X73819Y9843D01*
X44291Y9843D02*
X45276Y8858D01*
X72835D01*
X177205Y161378D02*
X185728D01*
X174213Y164370D02*
X177205Y161378D01*
X174213Y164370D02*
Y168744D01*
X185728Y163898D02*
Y171555D01*
X181539Y175744D02*
X185728Y171555D01*
X174213Y175744D02*
X181539D01*
D19*
X246850Y106693D02*
D03*
X236850D02*
D03*
X226850D02*
D03*
X216850D02*
D03*
X206850D02*
D03*
X186850D02*
D03*
X176850D02*
D03*
X166850D02*
D03*
X156850D02*
D03*
X146850D02*
D03*
X246850Y76693D02*
D03*
X236850D02*
D03*
X226850D02*
D03*
X216850D02*
D03*
X206850D02*
D03*
X186850D02*
D03*
X176850D02*
D03*
X166850D02*
D03*
X156850D02*
D03*
X146850D02*
D03*
Y66693D02*
D03*
X156850D02*
D03*
X166850D02*
D03*
X176850D02*
D03*
X186850D02*
D03*
X206850D02*
D03*
X216850D02*
D03*
X226850D02*
D03*
X236850D02*
D03*
X246850D02*
D03*
X146850Y56693D02*
D03*
X156850D02*
D03*
X166850D02*
D03*
X176850D02*
D03*
X186850D02*
D03*
X206850D02*
D03*
X216850D02*
D03*
X226850D02*
D03*
X236850D02*
D03*
X246850D02*
D03*
X146850Y96693D02*
D03*
X156850D02*
D03*
X166850D02*
D03*
X176850D02*
D03*
X186850D02*
D03*
X206850D02*
D03*
X216850D02*
D03*
X226850D02*
D03*
X236850D02*
D03*
X246850D02*
D03*
X146850Y86693D02*
D03*
X156850D02*
D03*
X166850D02*
D03*
X176850D02*
D03*
X186850D02*
D03*
X206850D02*
D03*
X216850D02*
D03*
X226850D02*
D03*
X236850D02*
D03*
X246850D02*
D03*
D20*
X367835Y178228D02*
D03*
X306102Y99567D02*
D03*
X115866Y178228D02*
D03*
D21*
X367835Y168228D02*
D03*
X357835Y178228D02*
D03*
Y168228D02*
D03*
X347835Y178228D02*
D03*
Y168228D02*
D03*
X337835Y178228D02*
D03*
Y168228D02*
D03*
X327835Y178228D02*
D03*
Y168228D02*
D03*
X317835Y178228D02*
D03*
Y168228D02*
D03*
X307835Y178228D02*
D03*
Y168228D02*
D03*
X297835Y178228D02*
D03*
Y168228D02*
D03*
X287835Y178228D02*
D03*
Y168228D02*
D03*
X277835Y178228D02*
D03*
Y168228D02*
D03*
X365157Y92047D02*
D03*
X375157Y102047D02*
D03*
X365157D02*
D03*
X375157Y112047D02*
D03*
X365157D02*
D03*
X375157Y122047D02*
D03*
X365157D02*
D03*
X375157Y132047D02*
D03*
X365157D02*
D03*
X306102Y89567D02*
D03*
X158465Y126969D02*
D03*
X34291Y15748D02*
D03*
X24291D02*
D03*
X44291D02*
D03*
X54291D02*
D03*
X64291D02*
D03*
X28543Y132047D02*
D03*
X18543Y122047D02*
D03*
X28543D02*
D03*
X18543Y112047D02*
D03*
X28543D02*
D03*
X18543Y102047D02*
D03*
X28543D02*
D03*
X18543Y92047D02*
D03*
X28543D02*
D03*
X115866Y168228D02*
D03*
X105866Y178228D02*
D03*
Y168228D02*
D03*
X95866Y178228D02*
D03*
Y168228D02*
D03*
X85866Y178228D02*
D03*
Y168228D02*
D03*
X75866Y178228D02*
D03*
Y168228D02*
D03*
X65866Y178228D02*
D03*
Y168228D02*
D03*
X55866Y178228D02*
D03*
Y168228D02*
D03*
X45866Y178228D02*
D03*
Y168228D02*
D03*
X35866Y178228D02*
D03*
Y168228D02*
D03*
X25866Y178228D02*
D03*
Y168228D02*
D03*
X201339Y124213D02*
D03*
X359409Y15748D02*
D03*
X369409D02*
D03*
X349409D02*
D03*
X339409D02*
D03*
X329409D02*
D03*
D22*
X375157Y92047D02*
D03*
X168465Y126969D02*
D03*
X14291Y15748D02*
D03*
X18543Y132047D02*
D03*
X191339Y124213D02*
D03*
X379409Y15748D02*
D03*
D23*
X288386Y46260D02*
D03*
Y6890D02*
D03*
X270669Y46260D02*
D03*
Y6890D02*
D03*
X123031Y46260D02*
D03*
Y6890D02*
D03*
X105315Y46260D02*
D03*
Y6890D02*
D03*
X87598Y46260D02*
D03*
Y6890D02*
D03*
X306102Y46260D02*
D03*
Y6890D02*
D03*
D24*
X177008Y24606D02*
D03*
X187008D02*
D03*
X207008D02*
D03*
X217008D02*
D03*
X227008D02*
D03*
D25*
X315059Y55020D02*
D03*
X288287Y55118D02*
D03*
X123130D02*
D03*
X105315D02*
D03*
X324803Y70866D02*
D03*
X329724D02*
D03*
X334646D02*
D03*
X339567Y70965D02*
D03*
X344488Y70866D02*
D03*
X73819D02*
D03*
X68898D02*
D03*
X63976D02*
D03*
X59055D02*
D03*
X54134D02*
D03*
D26*
X294291Y103347D02*
D03*
X278543Y106299D02*
D03*
X374744Y29783D02*
D03*
X238189Y147638D02*
D03*
X221894Y173776D02*
D03*
X222004Y166776D02*
D03*
X232284Y134843D02*
D03*
X159449Y136811D02*
D03*
X101378Y71850D02*
D03*
X18957Y28287D02*
D03*
X87598Y76772D02*
D03*
X168744Y175744D02*
D03*
X169181Y168307D02*
D03*
X153543Y146653D02*
D03*
X107283Y113189D02*
D03*
D27*
X334646Y58071D02*
D03*
X350551Y58228D02*
D03*
X339646Y53228D02*
D03*
X350472D02*
D03*
X329724Y48228D02*
D03*
X350394Y48228D02*
D03*
X324803Y38386D02*
D03*
X350551Y38228D02*
D03*
X344488Y97441D02*
D03*
X329724Y107283D02*
D03*
X339567Y126969D02*
D03*
X324803Y117126D02*
D03*
X334646Y112205D02*
D03*
Y135827D02*
D03*
X316929Y125984D02*
D03*
X322835Y147638D02*
D03*
X303150Y132874D02*
D03*
X293307Y137795D02*
D03*
X210630Y135827D02*
D03*
X181102Y136811D02*
D03*
X43150Y38228D02*
D03*
X63819D02*
D03*
X59055Y43307D02*
D03*
X43307Y48228D02*
D03*
X43307Y43307D02*
D03*
X68898Y48228D02*
D03*
X43150Y58228D02*
D03*
X73819Y58071D02*
D03*
X59055Y83661D02*
D03*
X63819Y112047D02*
D03*
X73819Y107283D02*
D03*
X68898Y117126D02*
D03*
X63976Y123031D02*
D03*
X70866Y139764D02*
D03*
X80709Y118110D02*
D03*
X90551Y137795D02*
D03*
M02*
