M48
;Layer_Color=9474304
;FILE_FORMAT=2:5
INCH,TZ
;TYPE=PLATED
T1F00S00C0.01181
T2F00S00C0.02362
T3F00S00C0.02756
T4F00S00C0.03500
T5F00S00C0.03937
T6F00S00C0.05512
%
T01
X43150Y38228
X43307Y43307
X43307Y48228
X59055Y43307
X63819Y38228
X68898Y48228
X329724
X324803Y38386
X350551Y38228
X350394Y48228
X350472Y53228
X339646
X334646Y58071
X350551Y58228
X344488Y97441
X329724Y107283
X334646Y112205
X324803Y117126
X316929Y125984
X303150Y132874
X293307Y137795
X322835Y147638
X334646Y135827
X339567Y126969
X210630Y135827
X181102Y136811
X90551Y137795
X70866Y139764
X63976Y123031
X68898Y117126
X63819Y112047
X73819Y107283
X80709Y118110
X59055Y83661
X73819Y58071
X43150Y58228
T02
X105315Y55118
X123130
X288287
X315059Y55020
X324803Y70866
X329724
X334646
X339567Y70965
X344488Y70866
X73819
X68898
X63976
X59055
X54134
T03
X18957Y28287
X374744Y29783
X294291Y103347
X278543Y106299
X232284Y134843
X238189Y147638
X222004Y166776
X221894Y173776
X168744Y175744
X169181Y168307
X153543Y146653
X159449Y136811
X107283Y113189
X101378Y71850
X87598Y76772
T04
X14291Y15748
X24291
X34291
X44291
X54291
X64291
X329409
X339409
X349409
X359409
X369409
X379409
X375157Y92047
Y102047
Y112047
Y122047
Y132047
X365157
Y122047
Y112047
Y102047
Y92047
X306102Y89567
Y99567
X307835Y168228
X317835
X327835
X337835
X347835
X357835
X367835
Y178228
X357835
X347835
X337835
X327835
X317835
X307835
X297835
Y168228
X287835
Y178228
X277835
Y168228
X201339Y124213
X191339
X168465Y126969
X158465
X115866Y168228
Y178228
X105866
Y168228
X95866
Y178228
X85866
Y168228
X75866
Y178228
X65866
Y168228
X55866
Y178228
X45866
Y168228
X35866
Y178228
X25866
Y168228
X28543Y132047
X18543
Y122047
X28543
Y112047
X18543
Y102047
X28543
Y92047
X18543
T05
X177008Y24606
X187008
X207008
X217008
X227008
X226850Y56693
Y66693
Y76693
X236850
X246850
Y66693
X236850
Y56693
X246850
X216850
Y66693
Y76693
Y86693
Y96693
Y106693
X226850
X236850
X246850
Y96693
X236850
X226850
Y86693
X236850
X246850
X206850
Y76693
Y66693
Y56693
X186850
Y66693
Y76693
X176850
X166850
X156850
X146850
Y66693
X156850
X166850
X176850
Y56693
X166850
X156850
X146850
Y86693
Y96693
Y106693
X156850
X166850
X176850
X186850
Y96693
X176850
X166850
X156850
Y86693
X166850
X176850
X186850
X206850Y96693
Y106693
T06
X87598Y6890
X105315
X123031
Y46260
X105315
X87598
X270669
X288386
X306102
Y6890
X288386
X270669
M30
